<?xml version="1.0" standalone="no"?>
<!DOCTYPE svg PUBLIC "-//W3C//DTD SVG 20010904//EN"
 "http://www.w3.org/TR/2001/REC-SVG-20010904/DTD/svg10.dtd">
<svg version="1.0" xmlns="http://www.w3.org/2000/svg"
 width="336.000000pt" height="305.000000pt" viewBox="0 0 336.000000 305.000000"
 preserveAspectRatio="xMidYMid meet">
<g transform="translate(0.000000,305.000000) scale(0.100000,-0.100000)"
fill="#000000" stroke="none">
<path d="M1143 3043 c15 -2 37 -2 50 0 12 2 0 4 -28 4 -27 0 -38 -2 -22 -4z"/>
<path d="M1340 3046 c0 -2 7 -7 16 -10 8 -3 12 -2 9 4 -6 10 -25 14 -25 6z"/>
<path d="M2488 3043 c7 -3 16 -2 19 1 4 3 -2 6 -13 5 -11 0 -14 -3 -6 -6z"/>
<path d="M3128 3043 c7 -3 16 -2 19 1 4 3 -2 6 -13 5 -11 0 -14 -3 -6 -6z"/>
<path d="M3292 3025 c0 -16 2 -22 5 -12 2 9 2 23 0 30 -3 6 -5 -1 -5 -18z"/>
<path d="M44 2830 c0 -113 2 -159 3 -102 2 56 2 148 0 205 -1 56 -3 10 -3
-103z"/>
<path d="M1495 3006 c-88 -17 -220 -53 -251 -69 l-23 -12 24 -70 c14 -38 36
-97 51 -131 l26 -62 55 19 c65 22 201 49 249 49 l35 0 -3 143 -3 142 -45 2
c-25 1 -76 -4 -115 -11z m144 -15 c2 -1 -2 -8 -9 -16 -7 -8 -9 -15 -5 -15 4 0
2 -6 -5 -14 -6 -8 -19 -12 -27 -9 -14 5 -13 9 7 25 12 10 19 19 16 19 -24 5
-33 4 -46 -7 -8 -6 -24 -14 -35 -16 -11 -2 -19 -10 -17 -17 3 -17 -20 -9 -26
9 -3 7 0 10 6 6 6 -4 16 2 21 13 12 22 77 33 120 22z m-149 -10 c0 -5 -14 -14
-31 -20 -44 -15 -46 -14 -19 9 24 21 50 27 50 11z m-90 -21 c0 -5 -7 -10 -16
-10 -8 0 -12 5 -9 10 3 6 10 10 16 10 5 0 9 -4 9 -10z m-45 -20 c-3 -5 -12
-10 -18 -10 -7 0 -6 4 3 10 19 12 23 12 15 0z m-32 -15 c4 -8 1 -17 -5 -21 -7
-4 -8 -3 -4 4 4 7 1 12 -8 12 -8 0 -18 5 -21 10 -3 6 3 10 13 10 11 0 22 -7
25 -15z m87 4 c0 -8 6 -7 18 2 15 13 16 12 4 -3 -8 -10 -17 -17 -20 -16 -4 1
-17 -2 -30 -6 -29 -10 -39 -1 -22 19 14 17 50 20 50 4z m80 -9 c0 -14 -39 -32
-52 -24 -7 5 -5 11 7 21 22 15 45 17 45 3z m76 -15 c-22 -16 -46 -20 -46 -7 0
15 13 22 39 22 25 -1 25 -1 7 -15z m-306 -15 c0 -5 -5 -10 -11 -10 -5 0 -7 5
-4 10 3 6 8 10 11 10 2 0 4 -4 4 -10z m260 -13 c11 -16 11 -18 -1 -15 -18 4
-29 19 -22 31 3 4 6 7 7 5 1 -2 8 -11 16 -21z m113 10 c4 -10 -3 -12 -24 -9
-16 2 -26 8 -23 13 8 14 41 11 47 -4z m-311 -12 c0 -14 -29 -31 -38 -22 -9 8
16 39 28 35 5 -2 10 -8 10 -13z m24 -10 c-9 -14 -12 -25 -7 -25 5 0 11 -7 15
-15 3 -8 2 -14 -2 -13 -4 1 -22 -6 -40 -16 -32 -17 -34 -17 -30 1 2 11 15 20
33 23 20 4 26 8 18 13 -10 6 -9 14 3 33 9 13 19 24 21 24 3 0 -2 -11 -11 -25z
m50 -21 c-14 -10 -23 -11 -30 -3 -8 7 -5 15 8 25 14 10 23 11 30 3 8 -7 5 -15
-8 -25z m90 -3 c-4 -6 -19 -11 -34 -11 l-27 1 24 20 c24 20 51 13 37 -10z m87
4 c1 -5 -10 -11 -25 -13 -16 -2 -28 1 -28 7 0 20 49 26 53 6z m53 -20 c-22
-17 -36 -19 -36 -7 0 14 12 22 34 22 21 -1 21 -1 2 -15z m-195 -12 c13 -16 12
-17 -3 -4 -17 13 -22 21 -14 21 2 0 10 -8 17 -17z m85 -3 c8 0 14 -5 14 -11 0
-6 -5 -9 -12 -7 -6 2 -20 -4 -30 -14 -18 -18 -48 -25 -48 -10 0 14 23 32 42
32 9 0 16 6 14 13 -1 6 -1 9 1 5 3 -5 11 -8 19 -8z m-106 -10 c0 -6 -11 -15
-25 -22 -13 -6 -22 -15 -18 -21 3 -6 1 -7 -6 -3 -11 7 -8 18 12 44 11 15 37
16 37 2z m175 1 c8 -13 -23 -41 -46 -41 -30 0 -22 20 11 26 16 4 27 10 24 15
-3 5 -3 9 0 9 3 0 7 -4 11 -9z m-154 -48 c8 -10 9 -14 2 -10 -6 4 -14 3 -18
-3 -6 -10 -83 -50 -94 -50 -3 1 9 14 28 30 20 17 40 26 49 22 11 -4 14 -1 9
11 -8 22 7 22 24 0z m199 7 c0 -5 -9 -10 -20 -10 -11 0 -20 5 -20 10 0 6 9 10
20 10 11 0 20 -4 20 -10z m-290 -9 c0 -10 -30 -24 -37 -17 -3 3 -2 9 2 15 8
13 35 15 35 2z m150 -20 c0 -10 -42 -23 -49 -15 -7 6 20 24 37 24 6 0 12 -4
12 -9z"/>
<path d="M1689 3019 c-1 -2 -2 -68 -3 -145 l-3 -141 81 -6 c69 -4 197 -35 259
-62 11 -4 17 -3 17 5 0 12 56 161 85 227 l14 32 -57 21 c-31 12 -97 30 -145
40 -86 18 -246 37 -248 29z m38 -38 c0 -11 -5 -17 -9 -15 -11 7 -10 34 1 34 6
0 9 -9 8 -19z m100 4 c42 -5 50 -9 40 -20 -7 -7 -16 -11 -20 -8 -5 3 -4 -4 2
-15 12 -22 2 -35 -17 -23 -6 4 -10 17 -7 29 2 12 -2 25 -8 28 -7 4 -9 4 -5 -1
13 -14 -35 -44 -54 -34 -14 7 -16 6 -12 -6 5 -11 2 -14 -12 -9 -16 5 -16 4 -4
-5 13 -9 13 -11 -1 -11 -12 0 -16 -8 -13 -36 1 -20 -1 -33 -4 -29 -4 4 -7 31
-7 61 0 42 3 53 15 51 8 -1 14 4 13 11 -2 6 2 12 8 12 5 0 8 4 4 9 -3 6 2 8
12 7 10 -2 41 -7 70 -11z m98 -29 c18 -13 18 -15 2 -40 -22 -32 -24 -32 -24 0
0 18 2 22 8 13 7 -11 9 -10 9 4 0 9 -7 17 -15 17 -10 0 -15 -10 -15 -27 0 -21
-3 -24 -12 -15 -9 9 -9 18 0 37 13 29 21 30 47 11z m41 5 c-3 -5 6 -9 19 -10
49 -3 54 -4 48 -14 -4 -6 1 -8 11 -4 26 10 54 -9 54 -37 0 -21 -5 -24 -29 -24
-16 1 -29 5 -29 9 0 8 -76 25 -92 21 -4 -1 -5 5 -2 13 4 8 11 15 17 15 7 0 7
4 -1 12 -15 15 -15 28 -1 28 5 0 8 -4 5 -9z m-146 -15 c0 -3 -4 -8 -10 -11 -5
-3 -10 -1 -10 4 0 6 5 11 10 11 6 0 10 -2 10 -4z m-1 -41 c37 -19 47 -46 25
-62 -25 -18 -89 -16 -104 2 -18 22 -11 24 44 14 27 -5 52 -7 55 -3 11 11 -25
24 -66 24 -44 0 -52 7 -31 28 16 16 43 15 77 -3z m91 -36 c0 -4 -5 -11 -10
-14 -6 -4 -8 -11 -5 -16 3 -5 -2 -6 -12 -3 -14 4 -13 2 5 -14 37 -34 21 -93
-20 -71 -19 10 -24 44 -8 54 6 4 10 12 9 18 -2 23 13 54 27 54 8 0 14 -4 14
-8z m126 -10 c18 -14 18 -40 1 -63 -16 -22 -59 -15 -96 15 -33 27 -20 35 29
15 45 -18 70 -20 70 -8 0 11 -68 32 -101 32 -24 1 -24 1 -4 16 22 17 77 13
101 -7z m43 -3 c8 -10 8 -16 -2 -24 -10 -8 -13 -5 -15 14 -2 28 1 30 17 10z
m-346 -39 c3 -9 21 -13 50 -12 44 2 45 1 49 -32 3 -26 1 -32 -10 -28 -7 3 -35
5 -62 5 l-48 0 -4 40 c-2 26 1 40 8 40 7 0 14 -6 17 -13z m230 -50 c-3 -5 5
-7 18 -5 14 2 24 -2 24 -9 0 -18 20 -11 20 6 0 8 6 16 13 18 14 5 16 -23 2
-32 -5 -3 -10 -14 -10 -25 0 -10 -7 -21 -16 -24 -15 -6 -15 -4 -3 10 13 16 12
16 -10 4 -21 -11 -23 -10 -18 3 4 11 2 14 -8 10 -8 -3 -12 -10 -8 -17 3 -6 -4
-2 -17 9 -14 12 -20 14 -15 5 8 -13 6 -13 -8 -1 -9 7 -14 18 -10 25 4 6 8 14
9 19 1 4 2 9 3 11 0 3 10 4 20 3 11 0 17 -5 14 -10z"/>
<path d="M1765 2961 c-3 -5 0 -13 6 -17 7 -4 9 -3 5 4 -3 5 0 13 6 15 9 4 10
6 1 6 -6 1 -14 -3 -18 -8z"/>
<path d="M2008 2913 c7 -3 16 -2 19 1 4 3 -2 6 -13 5 -11 0 -14 -3 -6 -6z"/>
<path d="M1866 2794 c-10 -26 -7 -29 10 -8 14 18 15 18 9 -6 -5 -21 -4 -22 5
-7 11 17 6 37 -10 37 -4 0 -11 -7 -14 -16z"/>
<path d="M1980 2750 c-9 -6 -10 -10 -3 -10 6 0 15 5 18 10 8 12 4 12 -15 0z"/>
<path d="M3292 2920 c0 -19 2 -27 5 -17 2 9 2 25 0 35 -3 9 -5 1 -5 -18z"/>
<path d="M1096 2870 c-121 -68 -276 -187 -276 -212 0 -5 43 -54 96 -108 l97
-100 41 38 c48 44 143 110 203 141 l42 21 -50 122 c-28 68 -54 128 -58 135 -5
9 -32 -1 -95 -37z m49 0 c-9 -14 8 -13 23 2 9 9 12 8 12 -5 0 -9 5 -17 11 -17
5 0 7 -5 4 -11 -4 -6 1 -17 11 -24 11 -8 15 -15 10 -15 -5 0 -3 -7 4 -15 11
-13 10 -14 -3 -9 -8 3 -18 12 -21 19 -7 18 -60 2 -93 -28 -13 -11 -23 -17 -23
-14 0 16 -2 23 -12 34 -6 7 -15 10 -20 7 -6 -4 -6 -10 1 -17 18 -18 13 -57 -7
-57 -47 0 -55 48 -11 72 17 10 27 23 23 29 -4 7 2 6 17 -2 23 -12 23 -11 9 6
-9 11 -10 16 -2 11 6 -4 12 -3 12 1 0 5 12 16 28 25 32 20 35 21 27 8z m-176
-116 c-8 -23 -7 -25 4 -15 12 9 14 7 13 -11 -1 -16 -8 -24 -24 -26 -14 -2 -20
-8 -15 -15 4 -7 -1 -6 -10 2 -14 11 -20 11 -32 1 -20 -17 -19 -1 2 22 16 18
39 26 29 10 -2 -4 7 -8 22 -9 25 -2 25 -1 6 7 -12 5 -25 14 -30 21 -4 7 -3 10
4 5 6 -3 16 3 22 14 15 29 21 25 9 -6z m226 16 c3 -5 -17 -21 -45 -35 -28 -14
-48 -30 -45 -35 7 -12 32 -3 71 26 45 33 63 12 22 -26 -30 -28 -108 -29 -108
-1 0 29 48 81 75 81 13 0 27 -4 30 -10z m61 -68 c-3 -3 -1 -11 6 -19 8 -10 8
-17 0 -25 -7 -7 -12 -8 -12 -3 0 4 -9 -2 -19 -14 -11 -12 -22 -22 -25 -22 -21
3 -26 -1 -20 -11 5 -9 2 -9 -9 1 -9 7 -17 10 -17 5 0 -4 -5 -3 -12 4 -15 15
16 52 44 52 10 0 23 11 29 24 7 15 17 22 26 19 7 -3 11 -8 9 -11z m-181 -19
c-2 -10 -4 -20 -4 -23 -2 -7 -21 23 -21 33 0 4 6 7 14 7 8 0 13 -8 11 -17z
m-170 -3 c3 5 11 10 17 10 7 0 7 -4 -1 -13 -6 -8 -7 -18 -3 -22 4 -5 1 -5 -6
-1 -16 10 -9 -39 10 -62 11 -13 11 -14 -2 -7 -8 6 -19 10 -25 10 -5 0 -10 7
-10 15 0 8 -8 21 -17 28 -22 16 -24 36 -4 29 11 -4 13 -1 9 11 -6 14 -4 15 9
4 11 -9 18 -10 23 -2z m134 -9 c12 -7 10 -15 -7 -43 -25 -40 -67 -67 -82 -52
-7 7 5 21 35 42 50 35 62 61 17 38 -16 -8 -34 -22 -41 -30 -25 -30 -55 -12
-33 20 20 30 82 43 111 25z m86 -45 c7 -21 6 -29 -5 -36 -8 -6 -19 -8 -25 -7
-15 5 -23 50 -12 65 14 18 30 10 42 -22z m-78 -29 c-3 -8 1 -14 9 -14 7 0 10
5 7 10 -4 6 -1 7 6 3 7 -5 10 -15 7 -23 -4 -11 -2 -13 9 -10 8 4 17 1 21 -6 4
-7 4 -9 0 -5 -4 3 -24 -9 -44 -28 -26 -24 -38 -30 -44 -21 -6 9 -8 8 -8 -3 -1
-8 -5 -5 -11 8 -5 14 -13 20 -20 16 -8 -4 -9 -3 -5 4 5 8 -1 12 -16 12 -17 1
-12 5 17 15 22 8 47 23 55 34 17 24 24 27 17 8z"/>
<path d="M1116 2845 c-11 -8 -15 -15 -9 -15 6 0 16 7 23 15 16 19 11 19 -14 0z"/>
<path d="M1141 2836 c-16 -19 3 -31 26 -16 15 9 14 10 -7 4 -22 -6 -23 -5 -11
10 7 9 11 16 8 16 -2 0 -10 -6 -16 -14z"/>
<path d="M1010 2761 c0 -5 7 -14 15 -21 16 -14 18 -10 9 14 -6 17 -24 22 -24
7z"/>
<path d="M1150 2630 c0 -4 7 -7 15 -6 23 3 26 12 5 13 -11 1 -20 -2 -20 -7z"/>
<path d="M1090 2633 c0 -12 5 -25 11 -28 19 -12 22 3 5 27 l-16 22 0 -21z"/>
<path d="M1025 2540 c19 -21 27 -20 31 6 2 12 -1 13 -12 3 -10 -8 -14 -8 -14
0 0 6 -5 11 -12 11 -6 0 -3 -9 7 -20z"/>
<path d="M990 2546 c0 -2 8 -10 18 -17 15 -13 16 -12 3 4 -13 16 -21 21 -21
13z"/>
<path d="M2153 2903 c-9 -27 -49 -121 -77 -185 l-26 -58 33 -16 c55 -29 190
-121 227 -154 l34 -33 98 104 98 104 -58 52 c-58 53 -228 164 -289 189 -30 13
-34 13 -40 -3z m27 -27 c0 -11 -19 -15 -25 -6 -3 5 1 10 9 10 9 0 16 -2 16 -4z
m59 -15 c7 -5 10 -14 6 -20 -5 -9 -10 -9 -21 0 -26 22 -14 38 15 20z m-34 -48
c15 -9 17 -15 9 -23 -14 -14 -48 1 -57 23 -6 17 19 17 48 0z m125 -4 c0 -4 -7
-6 -15 -3 -8 4 -15 10 -15 15 0 4 7 6 15 3 8 -4 15 -10 15 -15z m-34 -13 c10
-8 16 -18 11 -22 -8 -8 -57 15 -57 28 0 13 24 9 46 -6z m104 -36 c0 -13 -17
-13 -25 1 -4 6 -14 8 -22 4 -13 -4 -14 -3 -3 10 9 11 17 12 31 4 10 -5 19 -14
19 -19z m-236 -20 c-14 -14 -39 14 -29 31 5 8 12 6 23 -5 11 -11 13 -19 6 -26z
m90 1 c14 -16 15 -19 2 -24 -16 -6 -50 26 -39 36 10 11 19 8 37 -12z m96 -6
c18 -22 0 -37 -24 -20 -10 8 -15 18 -11 24 9 15 20 14 35 -4z m99 -9 c9 -10 9
-16 1 -21 -13 -8 -42 14 -34 26 8 13 20 11 33 -5z m-319 -22 c0 -9 -5 -14 -12
-12 -18 6 -21 28 -4 28 9 0 16 -7 16 -16z m80 -9 c19 -23 1 -39 -21 -19 -10 9
-19 21 -19 26 0 13 27 9 40 -7z m98 -7 c16 -16 15 -28 0 -28 -22 0 -41 17 -34
29 9 14 19 14 34 -1z m192 -9 c0 -6 -4 -7 -10 -4 -5 3 -10 11 -10 16 0 6 5 7
10 4 6 -3 10 -11 10 -16z m-83 -2 c9 0 9 -6 2 -19 -10 -18 -18 -17 -46 5 -17
13 -5 30 16 21 9 -3 21 -7 28 -7z m-317 -18 c0 -5 -4 -9 -10 -9 -5 0 -10 7
-10 16 0 8 5 12 10 9 6 -3 10 -10 10 -16z m64 -8 c12 -13 14 -21 6 -26 -13 -8
-52 24 -44 36 8 14 19 11 38 -10z m316 4 c10 -12 10 -15 -3 -15 -8 0 -20 7
-27 15 -10 12 -10 15 3 15 8 0 20 -7 27 -15z m-216 -24 c12 -13 14 -21 6 -26
-11 -7 -50 21 -50 37 0 15 27 8 44 -11z m96 -6 c19 -23 1 -39 -21 -19 -10 9
-19 21 -19 26 0 13 27 9 40 -7z m90 -20 c0 -17 -2 -18 -24 -9 -23 9 -20 24 4
24 11 0 20 -7 20 -15z m-225 -15 c14 -16 15 -20 4 -20 -16 0 -39 19 -39 32 0
14 16 9 35 -12z m95 -15 c10 -12 10 -19 2 -27 -13 -13 -47 16 -37 32 9 14 21
12 35 -5z m85 -5 c3 -5 4 -14 0 -20 -8 -13 -35 -1 -35 16 0 16 26 19 35 4z
m-38 -66 c-3 -3 -15 0 -27 6 -17 9 -19 14 -10 20 13 8 47 -16 37 -26z"/>
<path d="M966 2882 c-3 -5 1 -9 9 -9 8 0 12 4 9 9 -3 4 -7 8 -9 8 -2 0 -6 -4
-9 -8z"/>
<path d="M2379 2873 c-13 -16 -12 -17 4 -4 9 7 17 15 17 17 0 8 -8 3 -21 -13z"/>
<path d="M3292 2753 c-1 -60 2 -93 9 -93 5 0 7 -6 3 -12 -5 -9 -3 -9 9 1 17
13 14 36 -4 26 -5 -4 -9 1 -9 9 0 9 6 16 13 16 9 0 9 2 0 8 -7 4 -14 37 -16
72 -3 55 -3 51 -5 -27z"/>
<path d="M1590 2710 c-221 -21 -436 -131 -596 -303 -169 -183 -253 -421 -241
-677 7 -137 31 -231 87 -348 138 -287 400 -484 710 -533 99 -15 264 -6 365 20
319 84 580 351 667 683 32 121 31 339 0 457 -86 319 -323 569 -628 664 -66 21
-251 51 -281 46 -4 -1 -42 -5 -83 -9z m315 -40 c155 -40 345 -154 446 -268 97
-110 169 -243 211 -388 31 -108 33 -354 4 -454 -54 -184 -137 -325 -261 -445
-186 -180 -404 -263 -664 -252 -237 10 -428 94 -598 264 -222 220 -317 535
-254 839 78 377 391 670 773 724 89 12 254 3 343 -20z"/>
<path d="M1346 2578 c3 -5 10 -6 15 -3 13 9 11 12 -6 12 -8 0 -12 -4 -9 -9z"/>
<path d="M1500 2535 c0 -5 5 -17 10 -25 5 -8 10 -10 10 -5 0 6 -5 17 -10 25
-5 8 -10 11 -10 5z"/>
<path d="M1400 2469 c-82 -63 -171 -150 -217 -212 -39 -53 -36 -64 19 -93 29
-15 48 -12 48 8 0 17 96 175 154 253 53 71 70 96 64 94 -2 0 -32 -23 -68 -50z
m-55 -88 c3 -6 -2 -14 -11 -19 -9 -5 -17 -13 -17 -18 -1 -5 -5 -8 -9 -6 -5 1
-8 -7 -8 -17 0 -11 -7 -26 -15 -35 -8 -8 -19 -26 -25 -41 -5 -14 -14 -24 -19
-21 -4 3 -7 -5 -6 -17 2 -16 -3 -23 -16 -24 -10 -1 -19 3 -19 8 0 6 -4 8 -9 4
-26 -16 -16 18 20 66 42 55 58 74 45 52 -16 -27 2 -11 34 32 34 46 44 52 55
36z"/>
<path d="M1243 2275 c0 -8 4 -15 9 -15 4 0 8 4 8 9 0 6 -4 12 -8 15 -5 3 -9
-1 -9 -9z"/>
<path d="M1203 2238 c-17 -22 -26 -45 -10 -26 8 10 16 16 19 13 2 -3 5 2 5 10
0 18 -2 18 -14 3z"/>
<path d="M1870 2505 c0 -3 11 -18 25 -33 40 -42 139 -190 174 -259 17 -35 34
-63 37 -63 12 0 61 30 73 44 11 13 7 23 -22 63 -48 65 -149 160 -224 212 -35
23 -63 39 -63 36z m130 -121 c0 -8 5 -12 10 -9 6 4 38 -21 70 -55 60 -62 76
-95 43 -84 -14 5 -15 4 -4 -4 8 -6 19 -8 25 -6 14 5 19 -33 5 -41 -5 -4 -6 2
-2 12 6 16 5 16 -10 4 -9 -7 -14 -18 -10 -24 3 -6 1 -7 -6 -3 -6 4 -8 12 -5
18 5 7 2 9 -8 5 -12 -4 -15 1 -14 23 2 21 -2 26 -13 22 -9 -3 -12 -1 -7 6 4 7
2 12 -3 12 -6 0 -11 7 -11 15 0 8 -5 15 -11 15 -5 0 -7 5 -4 10 3 6 1 10 -5
10 -6 0 -13 8 -17 18 -3 9 -13 25 -22 35 -17 20 -24 50 -10 41 5 -3 9 -12 9
-20z"/>
<path d="M2060 2316 c0 -2 8 -10 18 -17 15 -13 16 -12 3 4 -13 16 -21 21 -21
13z"/>
<path d="M1866 2422 c-3 -5 1 -9 9 -9 8 0 12 4 9 9 -3 4 -7 8 -9 8 -2 0 -6 -4
-9 -8z"/>
<path d="M1383 2345 c0 -8 4 -12 9 -9 5 3 6 10 3 15 -9 13 -12 11 -12 -6z"/>
<path d="M1159 2313 c-13 -16 -12 -17 4 -4 9 7 17 15 17 17 0 8 -8 3 -21 -13z"/>
<path d="M1096 2127 c-121 -216 -180 -422 -193 -669 l-6 -118 108 0 c97 0 107
2 101 17 -14 36 -18 241 -7 326 16 116 53 257 96 364 19 48 35 88 35 90 0 2
-8 3 -18 3 -10 0 -29 11 -42 25 -13 14 -27 25 -31 25 -5 0 -24 -28 -43 -63z
m79 -5 c0 -11 3 -24 8 -28 4 -4 0 -17 -8 -30 -13 -21 -20 -42 -32 -106 -3 -16
-9 -28 -14 -28 -5 0 -8 -3 -7 -7 4 -15 -14 -78 -28 -100 -9 -15 -11 -23 -3
-23 6 0 9 -6 6 -12 -2 -7 -13 -12 -23 -10 -19 3 -19 3 0 -10 15 -12 17 -21 11
-49 -5 -19 -9 -46 -9 -60 -1 -14 -7 -33 -15 -42 -8 -11 -9 -17 -3 -17 7 0 11
-21 11 -54 -1 -30 2 -64 6 -76 4 -14 3 -20 -3 -17 -6 4 -6 -9 -1 -36 4 -23 6
-43 4 -45 -2 -2 -28 -5 -59 -7 -38 -2 -54 0 -50 7 5 7 2 8 -7 2 -34 -21 -39
-13 -38 52 1 35 5 61 10 58 5 -3 6 2 3 11 -4 8 0 23 7 32 8 9 9 14 3 10 -7 -4
-10 6 -9 31 3 52 4 54 15 47 6 -4 7 2 2 15 -9 25 14 151 29 161 6 3 9 10 7 15
-5 14 22 93 60 174 19 41 35 81 36 87 1 7 11 20 22 29 10 8 12 12 4 8 -13 -7
-13 -6 0 10 13 17 15 17 32 -4 10 -12 18 -18 18 -13 0 6 -9 18 -20 28 -24 22
-17 37 13 26 13 -5 22 -17 22 -29z m25 -12 c0 -5 -4 -10 -10 -10 -5 0 -10 5
-10 10 0 6 5 10 10 10 6 0 10 -4 10 -10z"/>
<path d="M1086 2044 c-4 -9 -4 -19 -1 -22 3 -3 5 0 5 7 0 7 5 9 10 6 6 -4 7
-11 4 -17 -4 -7 -2 -8 4 -4 9 5 9 13 2 27 -13 23 -16 24 -24 3z"/>
<path d="M2170 2165 c-13 -14 -32 -25 -43 -25 -12 0 -17 -5 -14 -12 97 -221
145 -457 133 -654 -3 -56 -8 -109 -12 -117 -5 -14 7 -16 100 -14 l106 2 0 55
c0 224 -73 511 -175 693 -28 50 -56 92 -61 94 -6 2 -21 -8 -34 -22z m9 -22
c-13 -15 -12 -15 7 -5 18 9 24 8 35 -5 12 -14 12 -15 1 -9 -11 7 -12 4 -2 -13
6 -12 18 -25 26 -28 8 -3 14 -9 14 -15 0 -5 -6 -6 -12 -3 -7 4 -5 0 6 -9 11
-9 15 -20 10 -28 -4 -7 -4 -10 1 -6 5 5 17 -6 27 -22 17 -30 26 -59 9 -32 -7
11 -9 11 -14 -2 -4 -9 -3 -15 1 -15 27 4 43 -25 47 -82 0 -9 7 -24 14 -33 7
-9 11 -22 8 -30 -3 -7 -1 -18 4 -23 5 -5 11 -23 14 -39 2 -16 10 -63 19 -104
22 -112 28 -178 15 -160 -9 12 -10 11 -4 -5 13 -37 15 -60 10 -85 -5 -24 -9
-25 -78 -25 l-72 0 2 75 c2 44 7 76 14 79 7 2 8 6 1 10 -5 3 -12 42 -15 86 -3
44 -11 105 -16 135 -6 30 -12 66 -14 80 -2 14 -9 38 -16 54 -6 16 -10 34 -8
40 2 6 -2 24 -10 39 -8 15 -11 33 -7 39 4 7 3 8 -4 4 -8 -4 -12 0 -12 11 0 10
-7 26 -15 36 -7 11 -12 27 -10 38 2 10 0 19 -6 19 -5 0 1 11 13 25 24 28 39
35 17 8z"/>
<path d="M2225 1919 c-4 -6 -5 -12 -2 -15 2 -3 7 2 10 11 7 17 1 20 -8 4z"/>
<path d="M2336 1767 c3 -10 9 -15 12 -12 3 3 0 11 -7 18 -10 9 -11 8 -5 -6z"/>
<path d="M1061 2144 c0 -11 3 -14 6 -6 3 7 2 16 -1 19 -3 4 -6 -2 -5 -13z"/>
<path d="M1565 1865 c-80 -17 -122 -35 -193 -84 -127 -86 -222 -262 -222 -411
l0 -40 515 0 c458 0 516 2 522 16 8 22 -13 143 -37 205 -29 75 -89 156 -102
138 -7 -10 -8 -8 -3 7 13 47 -163 153 -286 174 -81 13 -119 12 -194 -5z m205
-18 c61 -11 80 -20 73 -31 -4 -6 2 -4 12 4 15 12 17 12 10 1 -6 -11 -4 -13 9
-8 9 4 15 3 12 -2 -5 -8 42 -36 57 -33 9 2 9 -2 1 -22 -5 -12 -10 -13 -30 -4
-13 6 -21 14 -19 19 3 4 -5 5 -17 2 -19 -4 -20 -3 -8 6 12 9 8 10 -15 6 -36
-5 -127 -18 -137 -19 -4 -1 -13 -7 -19 -13 -14 -14 -33 -18 -25 -5 3 5 -1 9
-9 9 -11 0 -12 -4 -4 -13 6 -7 8 -18 4 -24 -10 -16 5 -12 32 9 13 11 48 25 77
31 55 11 90 7 135 -16 13 -7 28 -11 33 -8 4 3 8 0 8 -6 0 -8 -9 -10 -26 -6
-19 5 -24 4 -18 -6 4 -7 25 -64 46 -128 21 -63 36 -101 34 -85 -2 17 -13 58
-24 93 -12 37 -16 62 -9 59 6 -2 12 -12 13 -23 1 -10 9 -39 17 -64 8 -25 13
-60 12 -77 -2 -21 1 -30 8 -26 7 4 8 0 4 -12 -4 -9 -2 -24 4 -31 8 -9 8 -14 1
-14 -6 0 -14 5 -18 11 -3 6 -17 9 -30 6 -13 -2 -21 -1 -19 4 8 11 -99 22 -142
15 -57 -10 -74 -17 -68 -25 2 -5 -7 -8 -20 -8 -29 0 -33 12 -7 20 66 21 90 34
83 45 -5 9 -17 6 -44 -8 -45 -24 -57 -20 -52 18 2 15 4 30 4 34 3 32 166 60
210 36 13 -7 23 -17 22 -22 -2 -5 3 -13 11 -18 8 -5 -3 -6 -27 -1 -64 12 -121
7 -170 -17 -25 -12 -45 -25 -45 -30 0 -4 19 2 42 13 52 26 134 33 184 17 22
-8 33 -15 26 -17 -6 -3 -10 -9 -6 -14 3 -5 1 -9 -5 -9 -16 0 -22 18 -9 23 22
7 -89 19 -112 12 -42 -13 -13 -30 62 -36 42 -4 81 -10 87 -13 16 -10 14 -2
-21 105 -20 63 -36 95 -44 92 -6 -2 -10 -13 -7 -24 3 -10 0 -19 -6 -19 -6 0
-10 6 -8 13 2 14 -96 17 -128 3 -11 -5 -28 -8 -37 -7 -10 1 -18 -2 -18 -8 0
-6 8 -8 18 -4 15 6 15 4 -2 -15 -20 -23 -18 -26 8 -16 9 3 13 10 10 15 -8 14
60 39 106 39 56 0 42 -16 -16 -18 -25 -1 -54 -7 -63 -12 -11 -6 1 -8 39 -5
l55 5 -55 -13 c-30 -8 -65 -19 -77 -25 -30 -17 -31 -16 -29 26 2 40 11 62 27
62 6 0 7 -5 3 -12 -5 -8 -2 -9 12 -4 46 19 78 25 117 21 28 -3 35 -2 22 4 -11
4 -41 7 -67 6 -27 -2 -45 1 -42 6 3 5 18 9 35 9 20 0 29 5 29 16 0 9 6 14 13
11 50 -18 57 -18 57 2 0 47 -66 64 -152 39 -68 -20 -73 -31 -70 -190 1 -77 5
-145 8 -149 8 -14 -2 -11 -67 17 -66 27 -147 41 -176 29 -17 -7 -17 -8 2 -16
18 -9 18 -9 -2 -4 -13 3 -33 8 -45 11 -19 5 -20 4 -8 -5 12 -9 9 -10 -12 -5
-15 3 -33 2 -40 -2 -21 -13 -35 -13 -35 2 0 7 5 10 10 7 5 -3 8 0 5 8 -3 8 1
33 8 55 7 23 10 45 6 48 -3 4 -16 -28 -28 -71 -13 -43 -22 -78 -21 -79 1 -1
25 2 52 6 80 14 226 11 270 -5 22 -8 48 -15 59 -15 27 0 96 22 92 29 -5 8 243
-4 271 -13 20 -6 19 -3 -8 96 -51 183 -62 213 -69 193 -6 -17 -7 -17 -12 3 -4
12 -2 20 2 17 5 -3 10 1 12 7 3 8 9 6 16 -7 11 -22 83 -261 85 -282 0 -7 4
-13 9 -13 5 0 6 -5 2 -12 -4 -6 -3 -8 3 -5 7 5 3 30 -12 74 -34 101 -38 123
-23 141 10 12 10 14 0 8 -8 -5 -17 3 -26 26 -27 66 -28 77 -9 74 10 -2 12 -1
6 1 -7 3 -13 9 -13 14 0 5 -5 9 -11 9 -5 0 -7 -4 -4 -10 3 -5 2 -10 -3 -10
-11 0 -23 36 -15 44 7 6 57 -34 62 -49 8 -25 23 -45 30 -40 5 2 15 -3 22 -12
10 -12 10 -14 2 -9 -7 4 -13 3 -13 -2 0 -5 9 -12 21 -15 17 -5 19 -9 10 -26
-8 -14 -8 -22 1 -27 7 -4 8 -3 4 4 -4 7 -2 12 4 12 6 0 13 -8 16 -17 6 -18 11
-32 32 -84 6 -15 9 -38 8 -53 -2 -14 0 -26 3 -26 3 0 6 -15 6 -33 1 -31 -1
-32 -42 -32 -24 0 -43 5 -43 11 0 6 -6 11 -12 11 -7 0 -62 6 -122 13 -115 13
-156 10 -233 -16 -45 -16 -50 -15 -111 6 -65 23 -107 24 -289 3 l-51 -6 24 88
c14 48 36 121 49 163 13 42 22 79 19 84 -3 4 1 8 8 8 10 0 9 3 -2 11 -12 9
-10 10 9 5 13 -2 46 4 75 15 58 24 110 20 172 -11 47 -25 51 -25 31 -2 -10 10
-15 22 -12 25 3 4 0 3 -6 -2 -7 -6 -24 -4 -45 5 -18 8 -43 14 -54 14 -11 0
-20 5 -20 11 0 6 -7 3 -16 -5 -18 -19 -30 -20 -39 -6 -5 8 -11 7 -21 -1 -7 -6
-11 -16 -7 -22 4 -6 -2 -8 -15 -5 -12 4 -20 2 -16 -3 3 -5 1 -9 -5 -9 -23 0
-20 21 4 30 14 5 28 16 31 24 3 9 12 12 21 9 11 -4 14 -2 9 5 -5 8 -1 10 10 5
12 -5 15 -3 9 6 -6 10 -3 11 15 1 12 -7 20 -8 16 -2 -5 9 27 23 66 27 10 1 20
4 23 7 6 6 140 2 175 -5z m-428 -159 c-2 -10 -9 -15 -15 -11 -5 3 -7 1 -4 -4
4 -6 4 -25 1 -43 -5 -23 -9 -28 -16 -18 -7 9 -8 5 -5 -14 2 -16 1 -28 -3 -28
-4 0 -8 -10 -8 -22 0 -35 -34 -152 -46 -161 -6 -4 -19 -5 -29 -3 -9 2 -14 0
-11 -6 3 -5 17 -7 30 -4 13 4 24 2 24 -3 0 -30 -86 -23 -88 7 -2 32 9 83 17
78 4 -3 7 9 5 27 -1 18 5 42 12 55 8 12 13 26 10 31 -3 4 1 17 9 27 13 17 16
17 26 4 9 -12 10 -11 6 8 -4 15 3 31 19 49 13 14 24 31 24 36 0 6 8 19 17 29
16 18 18 18 24 1 3 -10 4 -26 1 -35z m521 34 c15 -7 27 -14 27 -17 0 -3 -12
-3 -27 0 -53 11 -83 11 -80 1 2 -6 11 -10 21 -8 35 6 14 -14 -26 -25 -24 -6
-54 -14 -67 -19 -15 -4 -22 -3 -18 3 3 5 24 15 46 23 22 7 38 17 35 22 -9 15
13 34 38 32 13 -1 35 -6 51 -12z m-103 -13 c0 -4 -8 -9 -17 -12 -10 -2 -27 -8
-38 -13 -19 -7 -19 -6 -3 12 16 18 58 28 58 13z m-5 -59 c3 -5 -1 -10 -10 -10
-9 0 -13 5 -10 10 3 6 8 10 10 10 2 0 7 -4 10 -10z m162 -65 c0 -17 -2 -17
-37 -8 l-25 7 30 7 c17 4 30 7 31 8 0 0 1 -6 1 -14z m-73 -103 c3 -5 -1 -9 -9
-9 -8 0 -12 4 -9 9 3 4 7 8 9 8 2 0 6 -4 9 -8z m51 -10 c-3 -3 -11 0 -18 7 -9
10 -8 11 6 5 10 -3 15 -9 12 -12z m-345 -47 c0 -2 -9 -3 -19 -2 -11 0 -18 5
-15 9 4 6 34 0 34 -7z m354 6 c12 -4 -1 -7 -34 -7 -33 0 -46 3 -34 7 11 4 26
8 34 8 8 0 23 -4 34 -8z m-317 -57 c18 -8 33 -16 33 -18 0 -1 -64 -2 -142 0
-79 2 -156 4 -172 4 -55 0 -21 8 64 15 47 4 87 8 89 10 9 9 98 1 128 -11z
m381 2 c17 0 32 -4 32 -8 0 -9 -37 -11 -187 -12 -81 -1 -97 1 -80 10 12 6 37
12 56 12 18 0 35 3 38 6 2 2 28 2 56 -1 29 -3 67 -6 85 -7z"/>
<path d="M1446 1723 c-22 -45 -46 -132 -39 -149 5 -12 15 -14 47 -10 25 4 60
1 89 -8 26 -8 47 -12 47 -10 0 3 9 0 20 -6 14 -7 20 -7 20 0 0 5 5 10 12 10 9
0 9 -3 0 -12 -8 -8 -8 -17 -1 -31 8 -14 8 -18 0 -13 -15 10 -14 -7 2 -24 6 -8
1 -5 -13 6 -46 39 -156 59 -220 40 -22 -7 -23 -7 -8 5 15 12 15 17 3 39 -14
24 -14 24 -15 3 0 -12 3 -23 8 -26 4 -2 2 -3 -4 -1 -6 1 -17 -20 -26 -47 -14
-46 -13 -49 1 -43 37 17 170 16 220 -1 28 -9 51 -21 51 -26 0 -5 5 -9 10 -9 7
0 10 51 8 148 l-3 147 -45 22 c-28 14 -64 22 -97 23 -47 0 -54 -3 -67 -27z
m118 6 c-2 -4 9 -10 25 -14 16 -3 37 -15 47 -27 18 -20 18 -20 -23 2 -23 12
-47 19 -52 16 -5 -4 -12 -2 -16 4 -3 5 -19 7 -35 3 -18 -3 -30 -1 -30 5 0 6
12 12 28 14 45 5 61 4 56 -3z m-14 -40 c0 -4 -14 -6 -31 -4 -17 2 -40 0 -52
-5 -16 -6 -5 -8 36 -6 31 1 57 -1 57 -5 0 -4 13 -10 29 -14 16 -3 35 -13 42
-21 16 -19 7 -18 -41 7 -31 17 -53 20 -94 17 -41 -3 -53 -1 -52 9 3 21 18 31
51 35 35 4 55 -1 55 -13z m85 -31 c19 -18 17 -18 -25 1 -24 11 -46 25 -48 31
-5 15 47 -8 73 -32z m-34 -35 c16 -9 29 -23 29 -30 0 -7 5 -13 10 -13 6 0 10
-5 10 -11 0 -8 -4 -8 -12 -2 -31 23 -161 41 -211 29 -12 -3 -17 -3 -10 0 7 3
11 11 9 17 -1 7 -1 10 1 7 2 -3 31 -5 66 -4 38 0 71 -5 84 -14 12 -7 28 -12
35 -9 25 8 -67 38 -122 39 -40 1 -48 3 -30 8 38 11 107 3 141 -17z m-42 -42
c14 -4 27 -13 29 -21 5 -13 3 -13 -11 -1 -11 8 -44 14 -86 15 -38 0 -67 4 -64
9 5 9 98 8 132 -2z m71 -21 c0 -5 -4 -10 -9 -10 -6 0 -13 5 -16 10 -3 6 1 10
9 10 9 0 16 -4 16 -10z m-45 -73 c42 -23 70 -46 63 -52 -3 -3 -17 4 -31 16
-15 11 -32 17 -38 13 -8 -5 -9 -3 -4 5 5 9 1 12 -11 10 -11 -1 -32 3 -47 9
-39 16 -54 15 -67 -5 -9 -14 -10 -14 -7 -2 4 12 0 15 -21 11 -23 -5 -24 -6 -7
-12 17 -6 16 -7 -7 -12 -34 -6 -32 12 2 30 33 16 137 10 175 -11z m-95 -1 c0
-3 -4 -8 -10 -11 -5 -3 -10 -1 -10 4 0 6 5 11 10 11 6 0 10 -2 10 -4z"/>
<path d="M1394 1718 c-15 -7 -28 -32 -43 -83 -24 -84 -24 -85 -11 -85 6 0 10
11 10 25 0 14 4 25 9 25 5 0 8 11 6 25 -1 14 2 25 7 25 5 0 6 4 3 10 -7 11 12
50 24 50 5 0 1 -22 -9 -50 -10 -27 -16 -50 -13 -50 3 0 0 -7 -7 -15 -7 -9 -10
-18 -7 -22 4 -3 1 -15 -5 -27 -15 -27 -40 -132 -29 -120 5 5 23 56 41 114 17
58 38 124 45 148 15 44 13 47 -21 30z"/>
<path d="M1855 1673 c11 -3 24 -9 30 -14 13 -13 25 -11 25 4 0 7 -15 13 -38
13 -20 1 -28 0 -17 -3z"/>
<path d="M2047 1629 c7 -7 15 -10 18 -7 3 3 -2 9 -12 12 -14 6 -15 5 -6 -5z"/>
<path d="M2041 1574 c0 -11 3 -14 6 -6 3 7 2 16 -1 19 -3 4 -6 -2 -5 -13z"/>
<path d="M2080 1561 c5 -11 15 -23 21 -27 6 -3 3 5 -6 20 -20 30 -30 35 -15 7z"/>
<path d="M1848 1555 c-2 -1 -24 -5 -50 -8 -43 -5 -104 -34 -94 -44 2 -3 22 4
43 14 26 12 60 18 110 17 40 0 71 2 69 4 -6 5 -74 20 -78 17z"/>
<path d="M1430 1543 c0 -4 17 -7 38 -5 21 2 64 -5 97 -16 68 -23 87 -20 29 4
-44 19 -164 31 -164 17z"/>
<path d="M1226 1585 c-3 -8 -1 -15 4 -15 6 0 10 7 10 15 0 8 -2 15 -4 15 -2 0
-6 -7 -10 -15z"/>
<path d="M850 1471 c0 -6 4 -13 10 -16 6 -3 7 1 4 9 -7 18 -14 21 -14 7z"/>
<path d="M2456 2551 l-99 -100 49 -60 c41 -50 136 -201 146 -233 3 -8 240 91
255 106 22 22 -143 283 -229 363 l-24 23 -98 -99z m127 30 c14 -17 28 -27 32
-23 5 4 5 1 1 -6 -4 -7 -1 -15 9 -18 25 -10 40 -45 24 -55 -8 -5 -20 -7 -27
-4 -7 3 -10 1 -7 -4 3 -5 0 -13 -6 -17 -8 -5 -10 1 -7 19 3 15 1 24 -3 21 -5
-3 -9 0 -9 6 0 7 -10 20 -22 31 -21 17 -21 18 -3 12 11 -3 27 -11 35 -17 13
-9 13 -9 2 5 -14 19 -50 31 -57 20 -2 -4 -18 -6 -35 -3 l-30 4 21 19 c12 10
26 16 30 13 5 -3 9 2 9 10 0 24 16 19 43 -13z m-24 -77 c21 -27 29 -74 12 -74
-5 0 -12 9 -16 20 -3 10 -19 30 -35 43 -16 14 -26 28 -23 31 14 14 43 4 62
-20z m-119 -3 c-7 -14 -7 -22 1 -26 6 -4 8 -14 5 -22 -4 -8 -1 -11 5 -8 6 4 9
1 7 -6 -1 -8 2 -14 7 -14 6 0 9 3 8 8 -5 13 3 7 25 -18 l22 -25 -25 4 c-14 3
-23 1 -20 -5 9 -14 -4 -29 -19 -23 -8 3 -19 18 -26 34 -6 15 -21 30 -32 33
-19 5 -18 8 13 46 35 45 46 52 29 22z m115 -89 c-2 -2 -17 4 -34 12 -37 19
-66 60 -55 77 5 9 21 -3 50 -37 23 -27 41 -50 39 -52z m125 33 c17 -20 -3 -45
-36 -45 -31 0 -39 17 -18 41 21 23 37 24 54 4z m70 -87 c0 -8 -27 -4 -36 5 -4
4 -2 7 4 7 7 0 12 5 12 10 0 6 -11 3 -25 -6 -14 -9 -22 -20 -19 -25 10 -17 -3
-9 -22 13 -10 12 -13 18 -6 14 7 -4 15 -1 18 8 3 9 10 16 16 16 5 0 6 -6 2
-12 -4 -8 -3 -10 2 -5 5 5 10 13 10 18 1 5 2 12 3 17 1 8 41 -49 41 -60z
m-144 36 c10 -8 13 -12 5 -8 -7 3 -17 0 -22 -7 -6 -10 -11 -11 -20 -2 -11 11
-5 33 10 33 4 0 16 -7 27 -16z m-56 -24 c12 -7 12 -12 -4 -29 -22 -24 -37 -26
-54 -9 -7 7 -8 17 -1 30 10 19 35 23 59 8z m125 -63 c10 -23 10 -36 3 -45 -9
-10 -17 -2 -37 34 -14 26 -32 49 -38 52 -20 6 -15 -12 12 -52 28 -42 31 -56
11 -56 -33 0 -60 86 -36 115 11 13 16 13 42 -1 16 -8 36 -30 43 -47z m45 33
c10 -19 6 -24 -13 -21 -4 1 0 -10 8 -23 13 -19 14 -29 5 -46 -6 -11 -15 -18
-21 -15 -5 4 -5 14 1 26 6 11 8 24 4 30 -10 17 -13 69 -3 69 5 0 13 -9 19 -20z
m45 -14 c0 -9 6 -20 13 -25 10 -6 8 -11 -5 -23 -27 -23 -47 -33 -39 -20 4 6 2
20 -4 31 -6 13 -6 22 0 26 5 3 7 12 4 20 -4 9 1 13 13 11 10 -2 18 -11 18 -20z
m-200 -38 c21 -43 26 -66 14 -73 -12 -8 -12 -25 2 -25 5 0 8 4 5 9 -9 14 16
26 52 26 17 0 32 3 32 8 0 4 5 5 11 2 14 -9 5 -17 -26 -21 -14 -1 -37 -10 -51
-19 -13 -9 -29 -13 -34 -10 -14 9 -42 65 -33 65 5 0 4 4 -2 8 -5 4 -17 16 -25
26 -14 18 -13 19 2 14 10 -4 19 -1 22 8 8 21 13 18 31 -18z"/>
<path d="M2550 2596 c0 -2 8 -10 18 -17 15 -13 16 -12 3 4 -13 16 -21 21 -21
13z"/>
<path d="M2421 2464 c0 -11 3 -14 6 -6 3 7 2 16 -1 19 -3 4 -6 -2 -5 -13z"/>
<path d="M2440 2396 c0 -2 8 -10 18 -17 15 -13 16 -12 3 4 -13 16 -21 21 -21
13z"/>
<path d="M2635 2429 c-11 -17 0 -20 21 -4 17 13 17 14 2 15 -9 0 -20 -5 -23
-11z"/>
<path d="M2514 2355 c-17 -13 -17 -14 -2 -15 9 0 20 5 23 11 11 17 0 20 -21 4z"/>
<path d="M2750 2290 c-9 -6 -10 -10 -3 -10 6 0 15 5 18 10 8 12 4 12 -15 0z"/>
<path d="M2540 2246 c0 -2 8 -10 18 -17 15 -13 16 -12 3 4 -13 16 -21 21 -21
13z"/>
<path d="M750 2589 c-77 -92 -120 -155 -160 -237 l-42 -86 22 -15 c13 -9 70
-37 128 -64 104 -48 121 -49 122 -12 0 18 90 157 136 211 l43 52 -99 96 c-54
53 -103 96 -107 96 -5 0 -24 -19 -43 -41z m80 -4 c0 -1 -6 -8 -14 -14 -11 -9
-15 -7 -19 8 -3 14 0 17 14 14 11 -3 19 -7 19 -8z m25 -36 c-4 -5 -13 -9 -22
-9 -13 0 -13 3 -3 15 13 15 35 11 25 -6z m-80 -29 c-12 -14 -22 -17 -29 -10
-6 6 -3 16 9 30 12 14 22 17 29 10 6 -6 3 -16 -9 -30z m105 6 c0 -16 -18 -31
-27 -22 -8 8 5 36 17 36 5 0 10 -6 10 -14z m-86 -72 c-53 -47 -64 -52 -64 -30
0 17 18 30 40 31 8 0 14 6 12 14 -4 17 28 40 46 33 10 -4 0 -18 -34 -48z m-74
32 c0 -18 -17 -29 -30 -21 -8 5 -7 11 1 21 15 18 29 18 29 0z m200 -21 c-10
-12 -15 -13 -21 -3 -11 17 11 42 24 29 7 -7 6 -15 -3 -26z m-150 21 c0 -2 -7
-7 -16 -10 -8 -3 -12 -2 -9 4 6 10 25 14 25 6z m110 -34 c0 -5 -8 -16 -18 -25
-16 -15 -19 -15 -31 4 -7 12 -8 18 -2 15 5 -4 12 -2 16 4 7 12 35 13 35 2z
m-210 -21 c-12 -23 -30 -36 -30 -22 0 10 27 41 36 41 3 0 0 -9 -6 -19z m300 5
c0 -8 -4 -17 -9 -21 -12 -7 -24 12 -16 25 9 15 25 12 25 -4z m-154 -30 c3 -31
-21 -55 -38 -38 -9 9 -6 18 10 35 12 13 20 27 17 30 -3 4 -2 5 2 2 3 -3 7 -16
9 -29z m114 0 c0 -19 -44 -50 -48 -36 -4 12 26 50 40 50 4 0 8 -6 8 -14z
m-226 -5 c7 -10 -32 -47 -40 -38 -7 7 14 47 26 47 5 0 11 -4 14 -9z m147 -15
c-8 -10 -9 -16 -1 -21 15 -10 12 -32 -6 -39 -22 -8 -28 -1 -19 21 5 10 9 20 9
23 2 10 17 30 23 30 3 0 0 -6 -6 -14z m-96 -25 c2 -23 -18 -51 -36 -51 -16 0
-10 25 11 47 11 12 15 24 9 27 -5 2 -4 3 2 2 7 -1 13 -12 14 -25z m-115 -15
c0 -7 -6 -19 -14 -25 -18 -15 -30 11 -13 28 15 15 27 14 27 -3z m55 -6 c3 -5
1 -10 -4 -10 -6 0 -11 5 -11 10 0 6 2 10 4 10 3 0 8 -4 11 -10z m-17 -56 c-24
-24 -44 -7 -22 17 12 13 21 16 28 9 7 -7 5 -15 -6 -26z m112 -9 c-7 -8 -16
-15 -21 -15 -15 0 -10 22 9 43 15 17 17 17 20 3 2 -9 -2 -23 -8 -31z m88 25
c-11 -18 -28 -27 -28 -16 0 16 14 36 26 36 12 0 12 -4 2 -20z m-270 -8 c7 -5
10 -16 6 -25 -3 -9 -10 -14 -16 -11 -5 3 -7 12 -4 19 3 8 0 16 -7 19 -7 2 -7
5 -2 5 6 0 16 -3 23 -7z m122 -36 c0 -7 -6 -19 -14 -25 -19 -16 -32 5 -16 24
16 19 30 19 30 1z m-79 -9 c-1 -12 -15 -9 -19 4 -3 6 1 10 8 8 6 -3 11 -8 11
-12z m179 -7 c0 -11 -7 -23 -15 -27 -21 -8 -24 -2 -14 25 10 28 29 29 29 2z
m-57 -16 c9 -10 -4 -34 -19 -34 -16 0 -16 2 -8 24 6 17 16 20 27 10z m37 -38
c0 -3 -4 -8 -10 -11 -5 -3 -10 -1 -10 4 0 6 5 11 10 11 6 0 10 -2 10 -4z"/>
<path d="M43 2555 c0 -38 2 -53 4 -32 2 20 2 52 0 70 -2 17 -4 1 -4 -38z"/>
<path d="M3296 2595 c4 -8 8 -15 10 -15 2 0 4 7 4 15 0 8 -4 15 -10 15 -5 0
-7 -7 -4 -15z"/>
<path d="M3293 2530 c0 -25 2 -35 4 -22 2 12 2 32 0 45 -2 12 -4 2 -4 -23z"/>
<path d="M3292 2365 c0 -16 2 -22 5 -12 2 9 2 23 0 30 -3 6 -5 -1 -5 -18z"/>
<path d="M42 2325 c0 -16 2 -22 5 -12 2 9 2 23 0 30 -3 6 -5 -1 -5 -18z"/>
<path d="M3293 2255 c0 -27 2 -38 4 -22 2 15 2 37 0 50 -2 12 -4 0 -4 -28z"/>
<path d="M42 2270 c0 -14 2 -19 5 -12 2 6 2 18 0 25 -3 6 -5 1 -5 -13z"/>
<path d="M2725 2201 c-49 -21 -106 -45 -126 -54 l-37 -15 25 -83 c13 -46 28
-121 32 -167 5 -46 11 -85 13 -87 3 -3 67 -8 143 -12 l138 -6 -6 104 c-7 107
-43 272 -71 328 -9 17 -18 31 -19 31 -1 -1 -42 -18 -92 -39z m96 -22 c-2 -8
-4 -20 -4 -26 -1 -21 -11 -4 -15 23 -2 18 1 25 10 21 7 -2 11 -11 9 -18z m-61
1 c0 -5 9 -19 20 -30 11 -11 20 -27 20 -35 0 -28 -20 -15 -40 27 -23 48 -23
48 -10 48 6 0 10 -4 10 -10z m-32 -48 c4 -25 -13 -30 -22 -6 -9 25 -7 36 7 32
6 -3 13 -14 15 -26z m-68 -8 c0 -14 -4 -23 -10 -19 -5 3 -10 15 -10 26 0 10 5
19 10 19 6 0 10 -12 10 -26z m187 -6 c-3 -7 -5 -2 -5 12 0 14 2 19 5 13 2 -7
2 -19 0 -25z m-234 2 c-3 -11 -9 -20 -14 -20 -14 0 -11 28 4 33 6 3 13 6 14 6
0 1 -1 -8 -4 -19z m217 -20 c0 -5 -2 -10 -4 -10 -3 0 -8 5 -11 10 -3 6 -1 10
4 10 6 0 11 -4 11 -10z m-180 -35 c0 -8 -4 -16 -9 -19 -12 -8 -34 21 -27 33 9
14 36 2 36 -14z m58 -7 c5 -18 14 -32 21 -30 18 3 13 -6 -9 -18 -15 -8 -18 -8
-14 3 3 8 -2 17 -10 20 -17 7 -22 57 -6 57 5 0 13 -15 18 -32z m60 -7 c3 -16
-1 -22 -10 -19 -7 3 -15 15 -16 27 -3 16 1 22 10 19 7 -3 15 -15 16 -27z m82
-22 c0 -17 -29 -9 -40 11 -17 32 0 47 22 21 10 -13 18 -27 18 -32z m25 12 c3
-5 1 -12 -5 -16 -5 -3 -10 1 -10 9 0 18 6 21 15 7z m-210 -21 c-3 -4 2 -10 10
-14 8 -3 15 -16 15 -29 0 -13 6 -29 13 -37 6 -8 0 -4 -15 9 -16 14 -28 33 -28
43 0 10 -6 18 -12 19 -10 0 -10 2 0 6 6 2 9 10 6 15 -4 7 -2 8 5 4 6 -4 9 -11
6 -16z m135 0 c0 -5 -6 -9 -12 -7 -7 1 -12 -4 -10 -11 1 -8 -2 -11 -8 -7 -8 5
-7 11 1 21 13 16 29 18 29 4z m-160 -47 c0 -7 -4 -13 -9 -13 -10 0 -21 36 -13
45 7 7 22 -15 22 -32z m114 11 c9 -24 7 -34 -8 -34 -13 0 -26 20 -26 41 0 15
27 10 34 -7z m66 -14 c0 -10 5 -22 10 -25 6 -3 10 -12 10 -18 0 -8 -3 -9 -8
-1 -4 6 -15 13 -24 17 -18 6 -24 37 -12 50 11 10 24 -3 24 -23z m55 -1 c8 -23
1 -34 -14 -24 -13 8 -15 45 -2 45 5 0 13 -9 16 -21z m-89 -31 c4 -7 3 -8 -4
-4 -7 4 -12 2 -12 -3 0 -6 -5 -11 -11 -11 -8 0 -8 5 1 15 15 18 17 18 26 3z
m-106 -49 c0 -11 -4 -19 -9 -19 -16 0 -33 30 -27 46 5 13 9 14 21 4 8 -7 15
-21 15 -31z m58 -4 c3 -25 2 -27 -12 -16 -19 16 -22 55 -3 49 6 -3 14 -17 15
-33z m67 4 c8 -23 1 -34 -14 -24 -13 8 -15 45 -2 45 5 0 13 -9 16 -21z m64 3
c11 -21 -2 -48 -18 -38 -14 9 -15 56 -1 56 5 0 14 -8 19 -18z m-209 -58 c0 -8
-4 -14 -10 -14 -5 0 -10 9 -10 21 0 11 5 17 10 14 6 -3 10 -13 10 -21z m58
-14 c3 -21 2 -22 -12 -11 -19 16 -21 44 -3 39 6 -3 14 -15 15 -28z m62 -1 c0
-10 -4 -19 -9 -19 -12 0 -23 29 -15 41 8 14 24 0 24 -22z m64 5 c9 -22 8 -24
-9 -24 -8 0 -15 9 -15 20 0 24 15 27 24 4z m46 -10 c0 -8 -4 -12 -10 -9 -5 3
-10 10 -10 16 0 5 5 9 10 9 6 0 10 -7 10 -16z"/>
<path d="M512 2178 c-30 -81 -53 -193 -61 -295 l-6 -91 35 -6 c19 -3 83 -6
141 -6 l107 0 7 78 c4 42 17 117 30 167 13 49 22 92 19 96 -3 6 -239 109 -249
109 -2 0 -12 -24 -23 -52z m63 0 c-7 15 11 16 20 2 4 -6 1 -17 -5 -25 -7 -8
-9 -15 -4 -15 5 0 2 -5 -6 -10 -10 -6 -14 -21 -11 -47 3 -33 1 -36 -13 -24
-10 9 -16 9 -16 3 0 -7 -8 -9 -17 -5 -16 6 -16 5 -4 -10 7 -9 19 -17 26 -17 7
0 18 -6 24 -14 16 -19 -12 -40 -44 -32 -25 6 -34 30 -15 41 7 4 7 12 2 18 -4
7 -8 19 -7 27 1 8 3 23 3 33 1 10 6 16 10 13 5 -3 8 8 7 24 -1 17 2 27 8 23 6
-4 8 1 4 11 -4 10 -3 15 3 11 6 -3 10 -1 10 6 0 7 7 4 16 -7 8 -10 13 -13 9
-6z m75 -37 c0 -6 -4 -13 -10 -16 -5 -3 -12 -29 -16 -57 -6 -46 -8 -49 -20
-33 -18 25 -18 65 2 93 15 22 44 30 44 13z m35 -11 c10 -16 -3 -62 -25 -90
-27 -36 -31 -22 -12 43 17 56 25 67 37 47z m49 -7 c4 -5 12 -8 18 -8 6 0 12
-8 14 -18 1 -10 -2 -14 -9 -10 -6 4 -8 0 -4 -10 3 -10 3 -17 -2 -17 -5 0 -8
-10 -7 -22 1 -14 -5 -23 -14 -23 -8 0 -14 6 -12 13 1 6 -3 12 -9 12 -7 0 -9
14 -5 38 3 20 5 40 6 45 0 4 4 7 8 7 5 0 12 -3 16 -7z m-124 -124 c0 -5 5 -7
10 -4 6 3 10 1 10 -5 0 -6 -8 -10 -17 -8 -10 1 -24 -1 -31 -6 -11 -7 -11 -4 0
13 14 22 28 28 28 10z m106 -3 c18 -14 18 -16 3 -31 -15 -16 -19 -16 -50 0
l-33 17 25 14 c30 17 31 17 55 0z m-196 -36 c13 -7 21 -7 25 0 4 6 11 8 16 5
10 -7 -14 -35 -46 -54 -11 -7 -13 -10 -4 -8 12 4 16 -2 17 -23 1 -36 30 -66
61 -62 13 2 21 0 18 -5 -5 -7 -37 -9 -112 -4 -21 1 -26 4 -17 10 11 6 10 10
-5 15 -16 7 -16 9 7 21 14 7 29 11 34 8 5 -4 6 -1 2 5 -5 8 -13 9 -25 3 -14
-8 -17 -5 -19 20 -2 22 1 28 10 23 10 -6 10 -4 0 8 -9 11 -10 18 -2 23 5 3 10
1 10 -6 0 -7 3 -9 6 -6 4 4 1 13 -6 22 -15 18 1 21 30 5z m116 -27 c3 -16 8
-35 10 -44 3 -9 -5 -27 -16 -40 l-21 -24 5 57 c3 31 2 59 -3 62 -13 8 -21 -19
-21 -70 0 -46 -9 -54 -30 -29 -8 9 -10 27 -6 47 13 65 70 93 82 41z m70 -3
c13 13 14 -41 2 -64 -7 -13 -7 -16 1 -12 7 5 7 -2 0 -24 -11 -30 -35 -38 -72
-24 -12 4 -10 10 10 30 15 15 22 31 19 41 -4 8 -1 22 5 29 7 9 8 14 1 14 -5 0
-13 7 -16 16 -6 15 -4 15 17 1 14 -9 28 -12 33 -7z"/>
<path d="M520 2009 c0 -5 9 -9 20 -9 11 0 20 2 20 4 0 2 -9 6 -20 9 -11 3 -20
1 -20 -4z"/>
<path d="M723 2073 c4 -6 2 -13 -5 -15 -8 -3 -6 -6 4 -10 17 -7 19 15 3 29 -4
4 -5 3 -2 -4z"/>
<path d="M675 1980 c3 -5 13 -10 21 -10 8 0 12 5 9 10 -3 6 -13 10 -21 10 -8
0 -12 -4 -9 -10z"/>
<path d="M42 2145 c0 -16 2 -22 5 -12 2 9 2 23 0 30 -3 6 -5 -1 -5 -18z"/>
<path d="M3293 2135 c0 -22 2 -30 4 -17 2 12 2 30 0 40 -3 9 -5 -1 -4 -23z"/>
<path d="M355 2004 c-44 -52 -81 -99 -83 -105 -7 -18 -20 -8 -82 64 -34 39
-66 73 -69 75 -11 4 -31 -190 -31 -287 0 -88 17 -251 29 -269 3 -6 69 -14 150
-18 131 -6 145 -9 172 -31 32 -27 34 -26 19 12 -38 101 -55 461 -27 593 8 34
11 62 8 62 -3 -1 -42 -44 -86 -96z m49 -6 c-12 -55 -8 -318 5 -403 7 -44 14
-89 15 -101 2 -12 -3 -21 -10 -21 -7 0 -11 4 -9 8 3 4 -38 6 -90 4 -52 -1 -93
1 -90 4 2 4 -17 7 -43 7 -40 -1 -47 2 -48 19 -1 11 -6 38 -11 60 -11 49 -10
273 2 299 6 15 5 17 -5 11 -10 -6 -12 -4 -5 11 4 10 7 27 7 37 0 9 3 17 9 17
5 0 9 -4 9 -10 0 -5 6 -9 13 -7 6 1 11 -4 9 -11 -1 -8 2 -11 9 -6 12 7 -14 35
-44 47 -9 4 -8 8 3 16 16 11 33 5 25 -10 -4 -5 -1 -9 5 -9 5 0 18 -13 29 -30
10 -16 22 -27 27 -22 4 4 2 -1 -5 -10 -14 -19 -36 -14 -25 4 4 7 2 8 -5 4 -8
-6 -9 -12 -2 -20 6 -7 7 -17 3 -22 -4 -4 0 -3 9 4 9 6 20 8 24 4 5 -4 5 -1 1
6 -9 16 6 15 29 -2 16 -12 22 -10 47 18 15 17 28 34 28 39 0 5 6 7 14 4 10 -4
14 0 11 13 -2 11 1 19 8 17 6 -1 11 3 12 8 0 8 34 52 43 54 1 1 -1 -14 -4 -31z"/>
<path d="M376 1972 c-13 -24 -13 -29 -1 -29 8 0 12 4 9 8 -3 5 0 18 6 29 6 11
8 20 6 20 -3 0 -12 -13 -20 -28z"/>
<path d="M295 1871 c-3 -5 -2 -12 3 -15 5 -3 9 1 9 9 0 17 -3 19 -12 6z"/>
<path d="M2921 2062 c14 -62 27 -272 22 -347 -6 -90 -30 -237 -48 -289 -17
-49 -12 -59 9 -17 9 17 25 35 35 40 10 6 84 13 163 17 l146 7 11 71 c21 135
23 202 12 311 -15 143 -22 185 -30 185 -3 0 -33 -34 -66 -75 -33 -41 -62 -74
-65 -75 -3 0 -46 47 -95 104 -50 58 -93 105 -96 105 -4 1 -3 -16 2 -37z m49
-47 c0 -7 7 -16 16 -19 8 -3 12 -10 9 -16 -3 -5 2 -10 12 -10 15 0 16 -2 3
-10 -8 -5 -10 -10 -5 -10 6 0 23 -10 38 -22 26 -21 26 -22 9 -42 -12 -14 -13
-17 -2 -10 20 12 33 12 48 1 6 -5 12 -6 12 -2 0 4 8 1 17 -6 14 -12 16 -12 8
0 -6 11 -4 13 8 8 11 -4 14 -2 11 8 -3 7 5 25 17 39 19 21 25 24 38 13 14 -10
14 -10 4 4 -10 12 -10 18 -1 27 18 18 24 14 23 -15 0 -16 3 -46 8 -68 14 -69
16 -126 4 -249 -12 -139 -19 -149 -88 -144 -26 1 -45 0 -42 -5 7 -11 -81 -4
-89 8 -5 6 -8 5 -8 -4 0 -8 -6 -11 -16 -7 -8 3 -25 1 -37 -6 -20 -10 -21 -9
-9 5 11 13 10 16 -8 22 -16 5 -18 10 -10 20 19 23 34 414 15 427 -5 4 -6 10
-2 14 3 4 15 1 24 -7 16 -13 17 -12 5 3 -10 13 -10 17 0 22 7 3 2 3 -11 0 -20
-5 -23 -3 -17 11 3 10 1 24 -5 31 -10 12 -9 13 5 8 9 -3 16 -12 16 -19z m-20
-519 c0 -3 -4 -8 -10 -11 -5 -3 -10 -1 -10 4 0 6 5 11 10 11 6 0 10 -2 10 -4z"/>
<path d="M3175 1878 c1 -13 6 -21 11 -19 10 3 7 21 -5 34 -4 4 -7 -3 -6 -15z"/>
<path d="M3077 1867 c-6 -15 28 -17 40 -1 5 5 4 6 -1 2 -5 -4 -15 -3 -21 2 -9
7 -14 6 -18 -3z"/>
<path d="M3231 1644 c0 -11 3 -14 6 -6 3 7 2 16 -1 19 -3 4 -6 -2 -5 -13z"/>
<path d="M120 2081 c0 -5 7 -12 16 -15 14 -5 15 -4 4 9 -14 17 -20 19 -20 6z"/>
<path d="M326 2082 c-3 -5 1 -9 9 -9 8 0 12 4 9 9 -3 4 -7 8 -9 8 -2 0 -6 -4
-9 -8z"/>
<path d="M42 2030 c0 -14 2 -19 5 -12 2 6 2 18 0 25 -3 6 -5 1 -5 -13z"/>
<path d="M250 2007 c0 -2 6 -10 14 -16 11 -9 16 -9 22 1 4 7 4 10 -1 6 -4 -4
-14 -3 -22 3 -7 6 -13 9 -13 6z"/>
<path d="M2625 1708 c-10 -96 -34 -203 -55 -253 -12 -28 -15 -45 -8 -45 6 0
67 -23 136 -51 99 -40 127 -48 133 -37 33 49 79 270 79 373 l0 61 -112 2 c-62
1 -125 5 -139 8 -26 5 -27 4 -34 -58z m118 19 c-3 -5 -7 -6 -10 -3 -11 10 -30
-20 -36 -57 -4 -26 -2 -35 5 -31 7 4 8 2 4 -4 -7 -12 -36 -5 -36 9 0 4 -7 6
-15 3 -8 -4 -12 -10 -9 -15 3 -5 0 -9 -6 -9 -7 0 -9 7 -6 16 3 9 6 28 6 44 0
40 22 58 69 57 21 -1 37 -6 34 -10z m138 3 c6 -26 4 -132 -3 -136 -4 -3 -6
-10 -3 -15 9 -14 -7 -10 -29 6 -10 8 -24 12 -29 8 -7 -4 -8 1 -3 13 17 41 27
85 21 94 -12 19 -27 10 -22 -12 7 -24 -13 -67 -39 -89 -16 -13 -17 -12 -11 11
4 14 10 44 13 67 5 32 10 40 22 36 10 -4 13 -2 8 5 -5 8 -1 10 10 5 11 -4 15
-2 11 4 -4 6 5 10 23 9 17 -1 30 -3 31 -6z m-128 -73 c-6 -59 -16 -73 -27 -34
-11 41 -6 76 11 86 10 5 19 9 20 7 1 -1 -1 -27 -4 -59z m-53 -67 c23 -23 19
-40 -10 -40 -31 0 -50 11 -50 29 0 36 30 41 60 11z m106 -21 c42 2 64 -23 41
-46 -13 -14 -21 -14 -42 -5 -14 6 -25 19 -25 27 0 9 -5 13 -10 10 -6 -4 -8
-11 -5 -16 9 -14 -2 -11 -19 7 -19 19 -11 38 13 28 9 -3 30 -6 47 -5z m-161
-29 c4 -6 10 -8 15 -5 19 12 18 -13 -1 -33 -11 -12 -17 -22 -15 -22 3 0 1 -11
-4 -25 -6 -16 -6 -25 0 -25 6 0 10 -7 10 -16 0 -8 4 -13 9 -9 5 3 12 1 15 -4
4 -5 -1 -8 -10 -7 -8 1 -19 8 -23 15 -5 7 -11 12 -15 12 -25 -3 -32 2 -32 24
0 17 4 24 13 21 16 -7 27 11 12 20 -8 5 -9 3 -4 -6 5 -9 4 -11 -4 -6 -6 4 -8
13 -4 19 8 13 10 19 12 42 1 17 17 20 26 5z m75 -22 c-5 -13 -14 -42 -20 -66
-9 -35 -14 -41 -25 -32 -17 14 -4 64 27 97 27 29 30 29 18 1z m39 -55 c1 -33
-20 -63 -45 -63 -17 0 -17 1 1 36 8 16 15 41 15 55 0 61 28 35 29 -28z m35 36
c-4 -7 -1 -10 7 -7 8 3 20 -2 27 -11 8 -9 11 -11 8 -5 -3 7 1 15 10 18 22 9
32 -3 14 -14 -8 -6 -11 -10 -6 -10 5 0 3 -6 -3 -13 -6 -8 -8 -16 -5 -20 9 -8
-16 -77 -27 -77 -6 0 -7 -4 -4 -10 3 -5 -1 -10 -10 -10 -9 0 -14 4 -11 9 4 5
-2 7 -11 5 -10 -3 -31 5 -48 17 -16 12 -22 18 -12 15 10 -3 25 2 37 14 11 11
17 20 14 20 -4 0 -1 7 6 15 6 8 8 20 4 26 -5 9 -1 10 14 7 12 -4 20 -2 16 3
-3 5 -12 9 -20 9 -8 0 -14 7 -14 15 0 8 5 15 11 15 5 0 7 -5 3 -11z"/>
<path d="M2836 1708 c3 -5 10 -6 15 -3 13 9 11 12 -6 12 -8 0 -12 -4 -9 -9z"/>
<path d="M2660 1580 c0 -5 10 -10 23 -10 18 0 19 2 7 10 -19 13 -30 13 -30 0z"/>
<path d="M2805 1550 c-18 -7 -18 -8 8 -15 15 -4 31 -5 34 -1 4 3 -1 6 -11 6
-9 0 -14 5 -11 10 7 11 7 11 -20 0z"/>
<path d="M2626 1522 c-3 -5 1 -9 9 -9 8 0 12 4 9 9 -3 4 -7 8 -9 8 -2 0 -6 -4
-9 -8z"/>
<path d="M2756 1383 c-6 -14 -5 -15 5 -6 7 7 10 15 7 18 -3 3 -9 -2 -12 -12z"/>
<path d="M447 1753 c-9 -17 15 -193 38 -278 24 -93 51 -165 61 -165 3 0 62 23
131 51 98 41 123 55 119 68 -27 81 -46 162 -56 239 l-13 92 -138 0 c-76 0
-140 -3 -142 -7z m143 -46 c0 -20 -1 -20 -16 -5 -9 9 -13 21 -9 27 10 16 25 3
25 -22z m71 6 c7 -18 5 -21 -9 -16 -31 12 -44 47 -16 41 9 -2 20 -13 25 -25z
m59 0 c0 -20 -24 -11 -28 10 -2 12 1 15 12 11 9 -3 16 -13 16 -21z m-243 -5
c-3 -8 -6 -5 -6 6 -1 11 2 17 5 13 3 -3 4 -12 1 -19z m51 3 c3 -8 -1 -12 -9
-9 -7 2 -15 10 -17 17 -3 8 1 12 9 9 7 -2 15 -10 17 -17z m115 -52 c11 -40
-21 -29 -36 12 -4 13 -1 16 13 12 10 -3 20 -13 23 -24z m67 -10 c0 -11 5 -19
11 -19 5 0 7 -4 4 -10 -10 -16 -59 36 -51 55 5 14 9 15 21 5 8 -7 15 -21 15
-31z m-202 2 c3 -16 -1 -22 -10 -19 -7 3 -15 15 -16 27 -3 16 1 22 10 19 7 -3
15 -15 16 -27z m69 -2 c7 -17 17 -28 22 -24 6 3 8 0 5 -9 -3 -9 2 -17 15 -21
12 -3 21 -15 21 -26 0 -27 -18 -24 -32 6 -6 13 -14 22 -19 20 -4 -3 -11 0 -15
6 -4 8 -3 9 4 5 7 -4 12 -2 12 4 0 7 -9 14 -20 17 -11 3 -20 9 -20 13 0 5 -3
15 -6 24 -4 10 -1 16 8 16 7 0 19 -14 25 -31z m93 -23 c0 -8 -7 -16 -15 -20
-12 -4 -13 -2 -2 14 14 24 17 25 17 6z m-97 -54 c7 -16 18 -27 25 -25 6 3 12
0 12 -7 0 -6 -4 -8 -10 -5 -5 3 -10 1 -10 -4 0 -6 -5 -11 -12 -11 -6 0 -8 3
-5 7 4 3 -2 12 -13 20 -21 15 -28 53 -10 53 6 0 16 -13 23 -28z m125 0 c2 -12
-1 -22 -7 -22 -13 0 -32 35 -24 44 12 12 28 0 31 -22z m40 -3 c2 -23 2 -23
-13 -5 -18 24 -20 39 -2 34 6 -3 13 -15 15 -29z m-230 -3 c3 -12 -1 -17 -10
-14 -7 3 -15 13 -16 22 -3 12 1 17 10 14 7 -3 15 -13 16 -22z m150 -25 c-2 -4
8 -17 21 -28 22 -18 23 -43 2 -43 -9 0 -40 68 -33 75 8 8 12 6 10 -4z m68 -3
c4 -6 3 -8 -4 -4 -5 3 -12 0 -15 -6 -3 -10 -8 -10 -18 1 -8 8 -9 11 -2 7 6 -3
14 -2 18 4 8 13 12 13 21 -2z m-186 -8 c0 -5 -2 -10 -4 -10 -3 0 -8 5 -11 10
-3 6 -1 10 4 10 6 0 11 -4 11 -10z m89 -32 c5 -13 7 -27 4 -31 -8 -13 -33 14
-33 34 0 26 19 24 29 -3z m124 -12 c-1 -14 2 -26 8 -26 5 0 9 -8 9 -17 0 -15
-4 -13 -20 7 -22 28 -27 74 -7 67 6 -2 11 -16 10 -31z m-225 5 c3 -8 -1 -12
-9 -9 -7 2 -15 10 -17 17 -3 8 1 12 9 9 7 -2 15 -10 17 -17z m43 -15 c5 -16
17 -34 27 -42 11 -7 22 -25 24 -38 4 -22 3 -24 -13 -16 -9 6 -23 26 -29 45 -6
19 -16 35 -21 35 -6 0 -7 -4 -4 -10 3 -5 2 -10 -2 -10 -5 0 -9 16 -10 36 -1
41 17 41 28 0z m163 -43 c4 -9 1 -22 -6 -29 -11 -11 -13 -8 -15 16 -2 32 11
40 21 13z m-54 -12 c14 -27 -9 -40 -27 -16 -17 24 -17 35 2 35 8 0 19 -9 25
-19z m-122 -31 c-3 -9 -9 -8 -21 4 -9 10 -14 22 -11 28 8 13 38 -16 32 -32z
m97 -9 c3 -5 2 -12 -3 -15 -5 -3 -9 1 -9 9 0 17 3 19 12 6z m-77 -29 c6 -18
-15 -14 -22 4 -4 10 -1 14 6 12 6 -2 14 -10 16 -16z"/>
<path d="M3094 1432 l-140 -3 -23 -70 c-36 -111 -116 -262 -197 -369 -370
-491 -1014 -663 -1573 -421 -144 63 -280 158 -407 285 -61 61 -129 138 -152
172 -61 91 -137 239 -167 327 l-28 77 -144 0 -145 0 7 -37 c26 -142 116 -342
233 -518 86 -128 272 -317 402 -408 291 -201 574 -290 920 -290 330 0 627 89
895 268 315 209 566 558 649 902 10 40 16 76 14 80 -1 4 -66 7 -144 5z m-2825
-26 c60 1 114 -1 120 -5 6 -4 12 -20 13 -35 1 -15 8 -32 15 -38 7 -6 13 -17
13 -24 0 -7 9 -29 20 -49 11 -19 16 -35 12 -35 -4 0 -1 -4 6 -9 7 -4 14 -15
16 -23 1 -8 10 -27 20 -43 12 -18 13 -25 5 -20 -8 3 -6 0 4 -8 9 -8 17 -17 17
-21 0 -7 10 -20 38 -51 7 -8 10 -15 6 -15 -4 0 3 -11 16 -25 19 -20 21 -27 10
-40 -11 -14 -15 -12 -32 15 -18 30 -21 31 -71 27 -33 -3 -60 0 -70 8 -21 15
-22 25 -2 25 8 0 15 4 15 9 0 6 9 8 20 6 11 -2 18 0 15 4 -3 5 2 11 10 15 8 3
15 11 14 18 0 11 -2 11 -6 0 -6 -15 -43 53 -43 80 0 9 -5 20 -10 23 -8 5 -7
11 1 21 10 12 9 13 -5 8 -11 -4 -16 -1 -16 11 0 9 -4 14 -9 10 -5 -3 -13 0
-17 6 -4 7 -3 9 2 6 6 -3 16 -2 24 4 12 7 12 9 1 9 -8 0 -11 6 -7 18 4 12 1
10 -11 -5 -15 -19 -23 -21 -48 -14 -25 7 -35 4 -58 -18 -28 -25 -29 -26 -43
-7 -8 11 -14 15 -14 10 0 -6 5 -15 11 -21 8 -8 8 -13 0 -17 -6 -4 -11 -2 -11
5 0 7 -3 9 -6 6 -4 -4 -2 -12 3 -19 5 -7 15 -32 22 -55 6 -24 16 -43 22 -43 6
0 7 -4 4 -10 -3 -5 -1 -11 4 -11 6 -1 16 -3 21 -4 6 -1 13 -3 16 -4 3 0 2 -7
-3 -13 -4 -7 -8 -17 -8 -23 -1 -5 -7 -9 -14 -7 -7 1 -10 -2 -6 -8 3 -6 10 -8
14 -6 12 8 53 -54 47 -70 -3 -8 -2 -13 3 -10 5 3 16 -5 25 -19 9 -14 23 -25
31 -25 8 0 15 -5 15 -11 0 -5 4 -8 10 -4 5 3 5 -7 -1 -25 -6 -16 -15 -30 -20
-30 -12 0 -11 14 2 27 8 8 8 13 0 18 -6 3 -11 3 -10 -2 4 -22 -3 -24 -21 -8
-15 14 -17 21 -9 32 9 11 8 12 -5 7 -9 -3 -16 -1 -16 6 0 6 5 8 12 4 7 -4 8
-3 4 5 -4 6 -11 9 -16 6 -9 -6 -36 34 -32 48 1 4 -2 7 -8 7 -5 0 -16 14 -25
30 -9 17 -12 30 -9 30 4 0 -1 9 -11 20 -9 10 -15 26 -12 35 4 8 1 14 -6 12 -7
-1 -12 6 -12 16 0 10 -7 23 -16 28 -14 7 -32 57 -33 94 -1 6 -4 13 -9 16 -4 3
-9 15 -12 27 -2 12 -6 26 -9 31 -3 5 -8 30 -10 57 -3 27 -3 44 0 39 2 -7 47
-10 113 -9z m2937 -36 c-2 -21 -8 -45 -12 -52 -5 -7 -9 -17 -10 -23 0 -5 -2
-16 -2 -23 -1 -7 -6 -11 -10 -8 -5 3 -6 -8 -4 -24 3 -19 -3 -35 -17 -49 -12
-12 -19 -26 -16 -30 9 -15 -6 -41 -24 -41 -14 0 -14 -2 -1 -10 12 -7 12 -10 1
-10 -7 0 -11 -6 -8 -14 3 -8 -3 -23 -13 -34 -10 -11 -16 -23 -13 -26 4 -3 1
-6 -5 -6 -16 0 -15 13 1 29 10 11 9 12 -2 6 -11 -6 -13 -4 -8 11 7 19 7 19 -8
0 -10 -13 -11 -24 -5 -36 5 -10 6 -21 2 -25 -4 -5 -1 -5 6 0 11 6 12 3 2 -14
-6 -12 -16 -19 -21 -15 -6 3 -9 0 -8 -7 4 -16 -19 -61 -35 -71 -6 -4 -11 -13
-11 -19 0 -7 -6 -14 -14 -17 -9 -3 -11 0 -6 8 5 9 4 11 -4 6 -6 -4 -9 -12 -5
-17 3 -5 0 -17 -8 -26 -7 -9 -13 -19 -12 -22 1 -9 -50 -71 -59 -71 -5 0 -5 6
-1 13 4 6 3 9 -1 4 -5 -4 -10 -17 -12 -29 -2 -12 -9 -26 -16 -30 -27 -16 -104
-98 -98 -104 3 -3 1 -4 -4 -3 -6 2 -30 -16 -54 -38 -25 -23 -47 -41 -50 -41
-14 3 -40 -15 -35 -23 3 -5 -3 -6 -12 -2 -12 4 -15 3 -10 -5 4 -7 1 -12 -9
-12 -9 0 -13 -4 -10 -10 3 -5 0 -7 -8 -4 -8 3 -17 -2 -20 -10 -4 -9 -12 -16
-18 -16 -7 0 -27 -12 -46 -26 -19 -14 -37 -23 -40 -20 -3 3 -12 -2 -20 -12 -9
-10 -12 -11 -7 -2 4 8 4 12 -1 8 -4 -4 -17 -3 -28 3 -15 8 -18 8 -12 -1 5 -8
3 -11 -5 -8 -7 2 -14 12 -16 21 -2 13 2 15 14 8 25 -13 50 -6 73 21 11 12 18
18 15 12 -3 -6 1 -11 9 -11 8 0 12 4 9 9 -5 8 11 12 31 8 5 -1 7 2 3 6 -4 4 0
13 10 21 16 12 16 13 0 7 -16 -6 -21 3 -17 32 0 4 -5 11 -13 15 -9 6 -9 9 -1
9 7 0 17 -8 22 -17 6 -10 11 -15 11 -11 0 4 11 3 24 -2 16 -6 29 -5 40 3 18
14 29 54 18 71 -10 17 -11 37 -1 30 5 -3 7 -9 4 -14 -3 -5 4 -12 15 -15 18 -6
19 -9 8 -23 -11 -15 -11 -15 3 -5 9 7 20 9 24 5 5 -4 5 -1 0 7 -6 11 -3 13 13
9 13 -4 22 -1 22 5 0 7 5 5 10 -3 5 -8 10 -10 10 -5 0 6 -5 16 -12 23 -9 9 -9
12 0 12 7 0 22 10 33 21 17 17 23 19 31 8 7 -10 8 -8 3 7 -6 23 16 39 45 35
10 -2 8 2 -5 12 -18 14 -16 32 3 32 16 0 54 35 56 51 2 11 8 20 14 20 7 1 15
3 20 4 4 1 10 2 15 1 4 0 6 2 5 6 -5 18 14 53 25 46 7 -4 5 1 -3 11 -13 16
-12 20 4 32 11 7 23 11 28 8 5 -3 7 0 6 8 -2 7 2 12 8 11 6 -1 10 8 9 20 -1
12 -8 22 -16 22 -8 1 -13 7 -11 14 1 7 -1 10 -5 8 -5 -3 -17 1 -28 9 -13 10
-15 14 -4 14 12 0 12 2 -1 10 -8 5 -10 10 -5 10 6 0 21 -9 35 -20 29 -22 65
-26 77 -7 15 24 12 46 -8 61 -12 8 -18 19 -14 26 5 8 11 7 23 -2 15 -12 16
-11 3 5 -12 16 -9 22 12 18 5 -1 6 3 2 9 -5 8 -11 8 -19 1 -7 -6 -16 -7 -20
-3 -4 4 -6 2 -4 -3 3 -11 -4 -15 -29 -14 -15 0 -15 2 2 9 11 5 14 9 7 9 -7 1
-11 5 -7 11 3 5 13 6 22 3 10 -4 14 -2 10 4 -9 15 30 5 61 -15 13 -8 22 -11
20 -6 -1 5 6 23 15 41 11 20 13 34 7 38 -6 4 -7 12 -3 18 5 8 2 8 -9 0 -12
-11 -20 -9 -44 12 -16 14 -25 25 -20 25 5 0 3 7 -4 15 -7 8 -9 15 -4 15 5 0
-2 6 -16 13 -22 12 -28 11 -46 -7 -17 -16 -20 -25 -13 -43 6 -18 5 -23 -6 -23
-8 0 -15 -5 -15 -11 0 -5 -5 -7 -11 -4 -6 4 -8 14 -5 22 4 8 2 11 -5 7 -8 -5
-8 -1 0 13 6 11 7 24 3 28 -4 5 -1 5 6 1 9 -6 12 -2 10 10 -2 12 2 18 11 16
12 -3 12 -1 0 14 -12 16 -12 17 1 12 11 -4 16 0 16 12 0 10 -4 16 -8 14 -5 -3
-1 10 7 28 l16 33 119 2 119 2 -3 -39z m-196 -130 c12 -23 33 -46 48 -52 15
-7 29 -13 30 -14 2 -1 1 -11 -2 -22 -6 -19 -9 -19 -38 -5 -23 12 -38 13 -63 6
-41 -13 -65 -2 -46 21 8 9 24 16 37 16 24 0 24 1 8 25 -9 14 -13 32 -9 45 9
28 12 26 35 -20z m-2615 -15 c49 -48 15 -125 -55 -125 -52 0 -88 74 -54 112
39 42 76 47 109 13z m2518 -52 c-7 -2 -10 -10 -7 -17 3 -7 -2 -19 -11 -26 -8
-7 -15 -18 -15 -24 0 -7 -9 -22 -21 -34 -11 -12 -17 -27 -14 -32 3 -6 2 -10
-4 -10 -5 0 -14 8 -20 17 -12 22 4 54 23 47 20 -8 30 14 14 33 -11 14 -11 16
1 8 11 -6 13 -4 8 8 -3 10 -3 17 2 17 5 0 12 12 15 27 7 25 8 25 24 8 12 -12
13 -19 5 -22z m32 -43 c3 -5 2 -18 -4 -28 -8 -15 -2 -23 35 -46 37 -24 42 -30
34 -47 -10 -18 -13 -17 -53 12 -38 27 -43 29 -54 13 -7 -10 -19 -14 -29 -10
-14 6 -15 9 -2 29 8 12 23 37 32 55 17 33 30 40 41 22z m-2486 -24 c10 -12 4
-19 -33 -41 -25 -15 -46 -29 -46 -31 0 -3 7 -16 16 -29 15 -23 12 -45 -6 -45
-12 0 -63 94 -53 98 4 1 28 16 53 32 53 34 54 34 69 16z m2364 -72 c3 -4 -3
-24 -13 -45 -17 -32 -25 -38 -48 -36 l-29 2 20 27 c11 15 25 24 30 21 6 -4 7
-1 2 7 -11 17 23 39 38 24z m136 -101 c3 -2 -3 -11 -13 -21 -16 -16 -18 -16
-27 0 -5 10 -30 29 -55 44 -43 25 -44 27 -28 45 16 18 18 17 68 -23 28 -23 53
-43 55 -45z m-2528 60 c13 -16 12 -17 -3 -4 -10 7 -18 15 -18 17 0 8 8 3 21
-13z m93 -95 c-21 -34 -40 -65 -42 -68 -7 -10 -22 26 -18 43 5 22 -22 57 -39
51 -6 -3 -17 2 -24 10 -12 14 2 21 109 58 8 3 23 -2 34 -12 18 -18 17 -20 -20
-82z m119 44 c11 -15 19 -31 18 -37 0 -5 9 -13 21 -18 14 -5 19 -14 16 -30 -4
-18 0 -23 19 -25 25 -2 65 -31 57 -43 -2 -4 10 -12 26 -18 17 -5 30 -13 30
-17 0 -4 -3 -4 -6 -1 -4 3 -15 2 -25 -4 -15 -7 -17 -6 -13 6 4 11 2 13 -9 9
-10 -3 -21 4 -31 19 -9 13 -28 29 -42 36 -14 6 -22 15 -19 21 3 5 -3 14 -14
19 -10 6 -22 23 -26 38 -5 21 -8 24 -16 12 -8 -12 -13 -6 -11 12 2 9 -40 -1
-58 -15 -8 -6 -7 -1 4 11 10 13 24 20 30 16 6 -3 8 -3 4 2 -8 8 9 35 21 35 3
0 14 -12 24 -28z m2112 -14 c-4 -13 -12 -27 -18 -33 -7 -7 -7 -6 -2 4 6 10 4
12 -4 7 -9 -6 -9 -12 1 -24 7 -10 8 -14 4 -10 -5 4 -22 -2 -37 -13 -16 -11
-34 -17 -39 -14 -6 4 -9 1 -8 -6 2 -7 -3 -13 -9 -14 -16 0 -44 -40 -41 -57 2
-7 -3 -12 -10 -10 -7 1 -15 -5 -18 -13 -4 -8 -10 -15 -16 -15 -5 0 -6 5 -2 12
4 7 3 8 -4 4 -6 -4 -8 -14 -5 -23 5 -12 2 -15 -10 -10 -9 3 -16 3 -14 -1 1 -4
-8 -18 -20 -31 -18 -19 -20 -27 -11 -38 9 -11 8 -13 -3 -11 -8 2 -17 7 -21 12
-8 11 1 38 11 31 4 -2 8 2 8 9 0 11 -4 12 -17 4 -10 -6 -17 -20 -16 -32 1 -12
-4 -20 -11 -18 -7 1 -13 -3 -13 -9 0 -5 -4 -8 -9 -4 -5 3 -12 1 -16 -4 -9 -15
-66 -41 -76 -35 -10 6 -29 -37 -22 -48 2 -5 -1 -8 -6 -8 -6 0 -11 3 -11 8 0 4
-11 7 -24 7 -13 0 -22 -3 -20 -6 2 -4 -3 -12 -10 -18 -11 -9 -16 -9 -22 0 -5
8 -3 9 6 4 9 -6 11 -4 5 5 -7 11 -10 10 -19 -1 -6 -8 -22 -25 -36 -38 -14 -13
-19 -21 -12 -17 6 4 12 2 12 -3 0 -6 -4 -11 -9 -11 -14 0 -31 26 -23 36 4 5
-2 1 -14 -9 -11 -9 -24 -14 -27 -10 -4 3 -7 1 -7 -5 0 -7 -5 -12 -11 -12 -5 0
-7 5 -3 12 4 7 3 8 -4 4 -9 -5 -8 -14 2 -35 8 -15 13 -39 12 -54 -2 -15 0 -24
4 -22 4 3 13 -2 20 -10 11 -13 10 -14 -6 -9 -10 4 -16 4 -12 0 3 -4 13 -8 21
-10 8 -1 21 -7 28 -13 8 -5 28 -13 44 -17 24 -5 27 -4 15 5 -13 9 -12 10 4 5
12 -4 26 2 43 20 15 16 30 24 40 20 8 -4 22 -1 30 6 11 9 19 9 34 0 11 -7 19
-8 19 -2 0 5 5 10 10 10 21 0 8 -19 -20 -29 -16 -5 -30 -7 -30 -4 0 3 -7 0
-15 -7 -8 -7 -15 -9 -15 -5 0 5 -8 1 -17 -7 -21 -18 -62 -33 -82 -29 -8 1 -10
-2 -5 -10 4 -7 3 -10 -3 -6 -5 3 -29 -1 -52 -9 -24 -8 -55 -16 -70 -18 -14 -1
-35 -7 -46 -12 -11 -5 -39 -10 -62 -9 -22 0 -39 -4 -35 -9 3 -5 -2 -7 -11 -3
-9 3 -18 3 -21 -1 -3 -5 -37 -9 -77 -10 -40 -2 -76 -5 -81 -8 -4 -3 -8 1 -9 8
0 8 -2 9 -5 2 -3 -8 -35 -10 -102 -6 -53 2 -108 4 -121 4 -16 0 -20 3 -11 8 7
4 -6 7 -31 7 -24 0 -66 5 -94 12 -27 7 -58 13 -67 14 -10 1 -18 5 -18 9 0 4
-3 7 -7 7 -22 -4 -72 15 -66 25 5 7 2 7 -8 -1 -9 -7 -20 -8 -29 -3 -8 5 -19 6
-25 2 -5 -3 -3 3 5 13 14 17 14 18 -7 6 -22 -11 -28 -8 -24 13 1 5 -5 4 -13
-4 -11 -8 -16 -9 -16 -1 0 6 -9 11 -20 11 -12 0 -20 7 -20 18 0 14 -2 15 -10
2 -6 -10 -10 -11 -10 -2 0 6 -3 11 -8 10 -14 -4 -52 13 -52 23 0 6 -4 8 -9 4
-6 -3 -9 3 -8 14 1 12 8 19 19 18 13 -1 16 -7 12 -22 -4 -15 -3 -17 5 -6 8 12
12 12 24 2 9 -7 26 -13 39 -15 30 -3 50 -15 43 -26 -3 -5 3 -8 12 -8 32 1 75
-21 67 -34 -6 -10 -5 -10 8 -1 8 7 18 10 21 6 4 -3 13 -1 20 5 10 9 17 6 30
-9 10 -11 14 -25 10 -32 -5 -9 -3 -9 8 -1 17 13 45 12 42 -2 -1 -5 15 -10 35
-10 65 -1 107 -8 114 -19 5 -7 17 -5 36 6 23 13 32 14 45 4 9 -7 14 -15 10
-19 -4 -4 19 -4 50 0 39 5 61 3 71 -5 13 -11 14 -8 10 16 -3 24 -2 26 8 12 10
-12 33 -16 97 -17 46 -1 81 2 78 5 -4 3 4 14 16 24 19 15 25 16 42 5 11 -7 45
-12 75 -11 53 1 55 3 54 28 0 15 3 27 6 27 13 0 3 82 -11 90 -8 5 -15 14 -15
20 -1 5 -2 15 -3 20 -1 6 -20 9 -48 6 -27 -3 -54 -5 -60 -5 -7 -1 -13 -8 -13
-16 0 -8 -8 -15 -17 -15 -15 0 -16 2 -3 10 11 7 5 8 -20 3 -19 -3 -38 -11 -42
-17 -5 -7 -8 -7 -8 -1 0 6 -4 4 -9 -4 -8 -13 -12 -13 -28 0 -17 13 -17 13 -4
-4 8 -10 19 -16 25 -14 6 3 12 -8 13 -23 2 -34 -22 -47 -37 -20 -6 11 -9 23
-8 27 1 4 -3 18 -10 31 -10 18 -18 21 -35 16 -36 -11 -67 -13 -67 -3 0 14 -24
11 -46 -6 -10 -8 -14 -15 -9 -14 44 6 62 -3 84 -42 27 -47 36 -45 27 6 -5 22
-11 33 -18 29 -6 -4 -8 -3 -5 3 3 5 19 8 35 5 29 -4 30 -4 30 -73 0 -65 -1
-69 -22 -69 -16 0 -29 12 -45 40 -12 22 -25 40 -28 40 -2 0 -3 -18 0 -40 4
-36 2 -40 -18 -40 -14 0 -22 6 -22 18 1 66 -4 124 -9 119 -4 -3 -18 3 -32 13
-13 11 -35 20 -47 20 -24 0 -49 -22 -38 -33 3 -4 2 -7 -4 -7 -6 0 -14 7 -17
16 -4 10 -2 13 7 8 6 -4 9 -4 5 0 -3 4 -8 6 -10 4 -3 -1 -12 5 -22 14 -19 19
-14 38 10 38 8 0 12 -4 9 -10 -3 -5 0 -8 7 -5 7 3 70 1 139 -4 97 -6 144 -5
200 6 41 7 82 12 92 9 9 -2 17 0 17 5 0 4 6 6 14 3 8 -3 23 -1 34 5 13 7 22 7
30 -1 8 -8 12 -8 12 -2 0 13 44 34 72 34 11 0 39 10 62 21 22 12 53 28 67 35
20 10 29 11 39 1 10 -9 11 -9 6 0 -4 7 2 17 14 23 11 6 20 8 20 5 0 -2 8 2 18
10 9 8 22 16 27 17 6 2 18 9 28 18 9 8 25 15 35 15 10 0 16 6 14 15 -2 8 -1
12 3 9 3 -4 17 4 31 18 13 13 28 22 33 18 5 -3 12 3 15 13 4 10 18 25 31 32
14 7 25 17 25 22 0 5 4 7 9 3 6 -3 15 3 20 14 15 26 78 91 84 84 3 -2 8 5 12
16 6 21 50 61 67 61 5 0 6 -10 3 -22z m90 12 c3 -6 -5 -14 -18 -19 -26 -10
-43 -29 -34 -38 3 -3 16 2 29 11 50 36 95 9 76 -46 -11 -31 -35 -48 -67 -48
-37 0 -18 34 19 35 8 0 16 8 18 18 4 21 -16 22 -42 2 -45 -34 -86 -3 -60 47
21 40 65 61 79 38z m-2186 -131 c-5 -10 -18 -19 -28 -19 -13 0 -18 -5 -15 -17
3 -11 -4 -23 -17 -31 -19 -12 -25 -10 -60 24 -22 21 -39 42 -39 47 0 5 21 29
48 53 l47 44 37 -41 c31 -34 36 -45 27 -60z m2093 30 c14 -8 18 -17 14 -34 -5
-19 -2 -22 20 -22 38 0 53 -19 28 -37 -12 -9 -23 -11 -29 -5 -10 10 -55 13
-55 3 0 -3 10 -14 23 -24 20 -17 21 -20 6 -35 -15 -15 -20 -12 -68 37 l-51 53
40 38 c44 41 43 41 72 26z m-2279 -23 c7 4 9 3 5 -1 -5 -5 12 -28 36 -52 48
-47 47 -62 -4 -37 -24 12 -29 19 -19 25 10 6 11 9 2 9 -18 0 -53 32 -53 48 0
8 -5 10 -12 6 -8 -5 -8 -1 1 10 13 15 15 16 23 1 5 -8 15 -12 21 -9z m2172
-16 c-32 -34 -45 -33 -21 2 9 12 16 18 16 13 0 -5 5 -4 12 3 26 26 20 10 -7
-18z m-1927 -13 c9 -10 -1 -25 -42 -66 -47 -46 -54 -50 -66 -36 -11 14 -7 23
35 65 54 54 57 56 73 37z m1929 -43 c2 -5 -10 -18 -27 -29 -18 -12 -26 -23
-20 -29 6 -6 19 -1 35 14 21 20 28 22 35 10 6 -10 0 -20 -21 -36 -26 -19 -27
-23 -14 -34 13 -11 20 -9 40 10 19 18 28 21 37 12 8 -8 2 -18 -22 -39 -54 -46
-55 -46 -96 7 -21 27 -42 49 -45 50 -3 0 2 -32 12 -72 10 -40 17 -73 16 -74
-32 -22 -42 -20 -91 17 -28 22 -54 39 -58 39 -17 0 -7 19 13 25 13 5 28 0 42
-12 58 -50 58 -50 41 8 l-16 52 33 26 c19 14 45 36 59 48 25 22 41 25 47 7z
m-1770 -26 c7 -6 10 -14 7 -19 -3 -5 2 -9 10 -9 9 0 16 -5 16 -11 0 -5 4 -8 9
-4 5 3 16 -4 24 -15 7 -11 16 -18 19 -15 3 3 11 -2 19 -12 12 -15 12 -16 -4
-10 -11 4 -16 3 -12 -3 3 -6 17 -7 31 -4 14 4 24 2 24 -5 0 -6 6 -8 14 -5 8 3
17 1 21 -5 4 -7 -1 -9 -12 -5 -15 5 -15 4 -3 -4 8 -6 18 -9 22 -6 4 3 18 -1
30 -8 13 -7 26 -11 30 -10 4 1 4 -6 1 -15 -4 -11 -3 -14 5 -9 6 4 25 0 42 -9
16 -8 30 -13 30 -10 0 3 10 0 23 -7 12 -7 27 -13 32 -13 27 -3 71 -19 77 -29
5 -8 8 -7 8 1 0 7 7 10 15 7 8 -4 13 -9 11 -13 -3 -4 7 -7 22 -8 47 -1 51 -3
46 -17 -4 -10 -14 -12 -40 -6 -19 4 -37 4 -40 -1 -6 -10 0 -12 61 -25 34 -8
41 -13 43 -36 2 -16 -2 -28 -8 -28 -7 0 -8 -6 0 -19 19 -37 -15 -70 -57 -57
-10 3 -34 7 -55 10 -43 5 -81 23 -73 35 5 10 -18 21 -42 21 -9 0 -13 -6 -9
-15 5 -13 2 -14 -17 -4 -12 6 -24 13 -26 15 -2 1 16 30 39 63 36 51 45 59 63
52 17 -6 23 -18 25 -52 3 -68 12 -110 21 -105 9 6 28 103 29 146 1 21 0 23 -9
8 -8 -15 -13 -15 -23 -5 -8 6 -12 15 -10 18 6 11 -24 19 -43 12 -16 -6 -17 -5
-3 13 9 12 4 10 -14 -6 -16 -14 -26 -20 -23 -14 11 19 -32 46 -62 39 -14 -4
-23 -3 -19 0 11 11 -34 43 -52 37 -13 -5 -13 -4 0 14 14 19 14 19 -8 0 -20
-17 -26 -15 -23 6 0 4 -8 10 -19 13 -11 4 -20 10 -20 15 0 5 -8 8 -17 8 -10 0
-27 3 -37 7 -14 6 -17 5 -12 -4 5 -8 3 -12 -5 -10 -30 4 -40 -2 -49 -27 -8
-19 -16 -25 -30 -21 -11 3 -20 1 -20 -4 0 -5 7 -9 15 -9 16 0 16 -25 1 -49 -8
-12 -11 -11 -21 3 -12 15 -13 15 -19 -1 -4 -10 -4 -14 0 -10 4 4 16 -1 27 -10
11 -10 17 -13 14 -6 -13 21 7 21 28 0 11 -11 14 -17 8 -13 -20 11 -15 1 9 -20
14 -13 19 -14 14 -4 -4 8 0 6 8 -4 10 -13 13 -23 7 -29 -11 -11 -102 43 -95
55 3 4 -3 8 -13 8 -10 0 -33 14 -51 30 -18 17 -36 30 -40 30 -4 0 -23 15 -43
33 -21 17 -47 40 -58 50 -13 10 -19 23 -15 30 6 9 4 9 -7 2 -11 -8 -22 -3 -47
23 -18 19 -26 32 -17 29 29 -12 15 2 -20 19 -20 9 -33 19 -31 22 3 3 12 -1 20
-7 11 -9 20 -10 35 -1 16 8 21 8 22 -2 1 -7 2 -19 3 -27 0 -8 16 -19 34 -23
18 -5 30 -13 27 -18 -4 -6 -1 -10 5 -10 7 0 10 -7 7 -14 -4 -11 -1 -13 10 -9
10 4 14 2 10 -4 -4 -7 6 -17 23 -25 16 -7 30 -17 30 -23 0 -5 5 -3 10 5 8 13
10 12 10 -3 0 -10 10 -28 21 -40 12 -12 19 -17 16 -11 -3 6 0 11 8 11 8 0 12
-4 9 -9 -3 -4 -1 -8 5 -8 5 0 12 4 15 9 3 5 16 7 29 5 20 -4 20 -4 2 5 -11 4
-23 7 -27 4 -4 -2 -5 3 -2 11 3 9 10 16 15 16 14 0 59 78 56 97 -1 10 -6 18
-9 18 -4 0 -14 9 -23 20 -9 11 -14 15 -11 9 3 -6 -1 -11 -9 -11 -9 0 -14 7
-13 16 2 9 -3 15 -10 13 -8 -1 -11 2 -7 8 3 5 1 10 -5 10 -6 0 -9 4 -5 10 6
10 49 -3 72 -22z m-90 0 c22 -21 30 -48 16 -61 -3 -4 -14 7 -24 23 -28 45 -43
36 -17 -10 26 -45 18 -72 -21 -78 -29 -5 -71 34 -71 65 0 33 26 29 39 -7 5
-16 14 -30 19 -30 20 0 20 14 2 38 -48 60 1 112 57 60z m82 -62 c9 -11 3 -25
-30 -69 -26 -35 -46 -54 -55 -50 -8 3 -14 9 -14 13 0 12 73 119 81 120 4 0 12
-6 18 -14z m1579 -130 c27 -47 32 -60 21 -67 -8 -5 -17 -9 -21 -9 -13 0 -76
129 -64 134 21 8 31 -1 64 -58z m-1439 39 c34 -17 43 -45 29 -86 -18 -51 -67
-64 -112 -28 -34 27 -35 71 -1 104 28 29 45 31 84 10z m1379 -70 l32 -65 -25
-6 c-17 -4 -34 2 -58 20 -45 35 -50 33 -25 -10 18 -30 19 -37 7 -45 -22 -14
-24 -12 -50 48 -13 32 -25 61 -27 64 -8 18 40 19 66 1 52 -36 54 -35 33 6 -11
22 -17 42 -14 46 16 16 31 1 61 -59z m-1261 -32 l9 -48 14 38 c15 40 18 41 39
28 11 -7 9 -17 -8 -56 -12 -26 -21 -54 -21 -61 0 -21 -38 -17 -50 5 -5 11 -10
33 -10 50 0 42 -18 39 -26 -4 -7 -37 -11 -40 -33 -26 -13 8 -12 15 2 48 9 21
21 51 27 66 15 42 45 21 57 -40z m1120 -65 c5 -33 2 -38 -26 -53 -18 -9 -42
-15 -54 -13 -22 3 -49 47 -62 101 -6 22 -4 27 12 27 13 0 23 -14 36 -50 19
-52 23 -56 47 -40 12 8 12 15 -2 59 -15 47 -15 52 0 61 14 7 20 3 31 -23 7
-18 16 -48 18 -69z m-223 0 c35 -50 13 -108 -46 -123 -60 -15 -103 80 -58 125
28 28 84 27 104 -2z m-468 -6 c6 -4 20 -37 31 -74 l21 -68 -24 0 c-15 0 -24 6
-24 15 0 9 -9 15 -25 15 -14 0 -25 -4 -25 -10 0 -5 -11 -10 -25 -10 -14 0 -25
2 -25 5 0 2 14 34 32 70 31 63 42 72 64 57z m324 -51 c0 -51 -3 -62 -22 -75
-31 -22 -54 -20 -72 6 -12 17 -13 24 -3 30 6 4 16 3 21 -2 6 -6 16 -10 24 -10
12 0 13 11 8 55 -6 54 -6 55 19 55 24 0 25 -3 25 -59z m167 -66 c0 -8 -4 -12
-9 -9 -5 3 -6 10 -3 15 9 13 12 11 12 -6z"/>
<path d="M212 1260 c0 -14 2 -19 5 -12 2 6 2 18 0 25 -3 6 -5 1 -5 -13z"/>
<path d="M501 1067 c-13 -21 -12 -21 5 -5 10 10 16 20 13 22 -3 3 -11 -5 -18
-17z"/>
<path d="M450 1036 c0 -2 7 -7 16 -10 8 -3 12 -2 9 4 -6 10 -25 14 -25 6z"/>
<path d="M517 1029 c7 -7 15 -10 18 -7 3 3 -2 9 -12 12 -14 6 -15 5 -6 -5z"/>
<path d="M336 977 c3 -10 9 -15 12 -12 3 3 0 11 -7 18 -10 9 -11 8 -5 -6z"/>
<path d="M3129 1203 c-13 -16 -12 -17 4 -4 9 7 17 15 17 17 0 8 -8 3 -21 -13z"/>
<path d="M2998 963 c6 -2 10 -9 7 -14 -4 -5 1 -6 10 -2 13 5 14 7 3 14 -7 5
-17 8 -23 8 -5 0 -4 -3 3 -6z"/>
<path d="M334 1200 c-47 -19 -29 -68 20 -56 28 7 41 33 25 52 -13 16 -16 16
-45 4z m26 -26 c0 -8 -19 -13 -24 -6 -3 5 1 9 9 9 8 0 15 -2 15 -3z"/>
<path d="M2826 1073 c-6 -14 -5 -15 5 -6 7 7 10 15 7 18 -3 3 -9 -2 -12 -12z"/>
<path d="M2775 981 c-3 -5 -2 -12 3 -15 5 -3 9 1 9 9 0 17 -3 19 -12 6z"/>
<path d="M493 947 c-14 -8 -19 -17 -14 -25 6 -10 12 -7 25 12 19 30 19 30 -11
13z"/>
<path d="M660 876 c0 -2 7 -7 16 -10 8 -3 12 -2 9 4 -6 10 -25 14 -25 6z"/>
<path d="M2379 623 c-13 -16 -12 -17 4 -4 16 13 21 21 13 21 -2 0 -10 -8 -17
-17z"/>
<path d="M2162 515 c-7 -8 -9 -15 -4 -15 5 0 15 7 22 15 16 19 -1 19 -18 0z"/>
<path d="M1888 443 c7 -3 16 -2 19 1 4 3 -2 6 -13 5 -11 0 -14 -3 -6 -6z"/>
<path d="M2052 436 c7 -8 15 -12 17 -11 5 6 -10 25 -20 25 -5 0 -4 -6 3 -14z"/>
<path d="M1785 360 c3 -5 8 -10 11 -10 2 0 4 5 4 10 0 6 -5 10 -11 10 -5 0 -7
-4 -4 -10z"/>
<path d="M1067 346 c-4 -10 -1 -13 8 -9 8 3 12 9 9 14 -7 12 -11 11 -17 -5z"/>
<path d="M2270 340 c-9 -6 -10 -10 -3 -10 6 0 15 5 18 10 8 12 4 12 -15 0z"/>
<path d="M592 851 c-10 -6 -9 -11 3 -21 11 -9 19 -10 26 -3 13 13 -12 35 -29
24z"/>
<path d="M547 813 c-9 -9 12 -33 29 -33 17 0 18 12 2 28 -14 14 -22 15 -31 5z"/>
<path d="M2699 794 c-10 -13 -10 -17 1 -24 18 -11 30 -3 30 21 0 23 -13 25
-31 3z"/>
<path d="M900 610 c-8 -5 -10 -10 -5 -10 6 0 17 5 25 10 8 5 11 10 5 10 -5 0
-17 -5 -25 -10z"/>
<path d="M1243 391 c-10 -16 -9 -20 3 -25 23 -9 24 -8 24 19 0 30 -11 32 -27
6z"/>
<path d="M1380 376 c0 -10 9 -16 21 -16 24 0 21 23 -4 28 -10 2 -17 -3 -17
-12z"/>
<path d="M1377 333 c-11 -11 -8 -20 9 -27 23 -9 37 3 23 20 -13 15 -22 18 -32
7z"/>
<path d="M952 528 c-18 -18 -15 -55 5 -63 21 -7 56 29 51 54 -4 20 -39 26 -56
9z"/>
<path d="M1947 383 c-13 -12 -7 -51 9 -68 20 -20 44 -4 44 29 0 34 -34 59 -53
39z m33 -33 c0 -5 -5 -10 -11 -10 -5 0 -7 5 -4 10 3 6 8 10 11 10 2 0 4 -4 4
-10z"/>
<path d="M1527 339 c-4 -14 -1 -27 6 -31 8 -5 13 0 15 13 5 31 -14 46 -21 18z"/>
<path d="M3291 1424 c0 -11 3 -14 6 -6 3 7 2 16 -1 19 -3 4 -6 -2 -5 -13z"/>
<path d="M682 1346 c-68 -30 -125 -56 -128 -59 -16 -15 111 -228 194 -325 l45
-53 78 77 c43 43 75 82 72 87 -3 6 -1 7 5 3 6 -4 21 3 32 14 l21 21 -42 50
c-47 56 -139 205 -139 226 0 18 -1 18 -138 -41z m102 1 c-5 -15 -44 -20 -44
-5 0 13 18 18 23 6 3 -9 7 -7 12 5 9 22 18 16 9 -6z m27 -31 c-7 -8 -18 -12
-26 -10 -11 4 -10 11 3 35 16 27 18 28 26 9 6 -13 5 -25 -3 -34z m-127 -8 c-3
-4 -11 -8 -19 -8 -8 0 -17 -5 -21 -12 -4 -7 -3 -8 4 -4 7 4 12 5 12 2 0 -2 3
-13 7 -23 6 -16 5 -17 -13 -3 -17 14 -18 13 -7 -1 7 -9 9 -20 5 -24 -4 -5 1
-5 11 -2 10 4 16 3 12 -2 -3 -5 -1 -12 5 -16 6 -4 8 -11 5 -16 -3 -5 0 -6 8
-3 8 3 17 1 21 -4 3 -5 -1 -9 -9 -10 -8 -1 -22 -3 -30 -4 -8 -1 -12 -5 -9 -10
3 -4 3 -8 0 -8 -2 0 -13 -3 -23 -7 -17 -7 -17 -6 -1 18 13 20 13 26 3 26 -8 0
-12 -4 -9 -8 2 -4 0 -11 -6 -14 -6 -4 -10 -3 -9 2 4 22 -2 34 -13 27 -7 -4
-10 -4 -6 1 4 4 1 23 -7 41 -7 18 -10 36 -5 39 4 3 11 -1 13 -7 3 -8 6 -6 6 5
1 10 9 17 20 17 11 0 22 4 25 8 3 5 12 9 20 9 8 0 13 -4 10 -9z m73 0 c6 -7
16 -30 23 -52 10 -33 10 -40 -4 -54 -14 -15 -18 -14 -43 4 -42 32 -60 68 -44
88 12 14 16 10 36 -33 23 -49 45 -73 45 -49 0 7 -11 33 -25 57 -14 23 -25 45
-25 47 0 9 28 3 37 -8z m88 -18 c19 -37 19 -39 -5 -33 -11 3 -20 0 -20 -6 0
-6 -5 -11 -10 -11 -7 0 -7 6 0 19 7 14 7 22 -2 27 -7 4 -8 3 -4 -4 4 -7 3 -12
-2 -12 -6 0 -13 7 -16 16 -3 8 -2 13 3 10 5 -3 14 1 21 9 16 20 17 20 35 -15z
m25 -65 c17 -20 -3 -45 -36 -45 -31 0 -36 12 -18 38 18 26 37 28 54 7z m50
-50 c0 -8 9 -19 21 -25 13 -7 18 -17 15 -27 -5 -11 -2 -14 10 -9 14 5 15 4 4
-9 -9 -11 -16 -13 -24 -5 -5 5 -15 10 -20 10 -6 0 -4 -5 4 -10 13 -8 12 -12
-4 -27 -10 -10 -16 -13 -12 -6 4 7 -12 30 -36 54 -24 23 -38 39 -32 36 6 -4
21 5 33 19 22 25 41 25 41 -1z m-125 -5 c10 -17 -25 -24 -41 -9 -12 13 -11 15
11 17 13 1 27 -3 30 -8z m-51 -18 c9 -14 -22 -49 -47 -54 -18 -3 -23 0 -25 16
0 11 4 26 10 33 12 14 54 18 62 5z m117 -43 c30 -32 36 -53 19 -64 -5 -3 -16
7 -24 22 -7 16 -23 37 -35 47 -34 31 -27 -7 9 -48 32 -36 26 -55 -10 -36 -24
13 -40 41 -40 73 0 48 39 51 81 6z m-106 -9 c-3 -5 1 -23 10 -40 16 -31 12
-56 -7 -44 -7 4 -8 2 -4 -5 6 -9 11 -9 22 -1 10 9 22 9 49 0 31 -10 33 -13 20
-26 -8 -9 -19 -13 -24 -9 -5 3 -13 0 -17 -6 -5 -8 -3 -9 6 -4 9 5 11 4 6 -3
-13 -22 -32 -12 -62 29 -16 23 -39 52 -52 64 -13 13 -19 26 -13 29 5 3 11 1
13 -5 2 -6 13 -3 28 10 28 23 34 26 25 11z"/>
<path d="M826 1204 c-5 -12 -2 -15 10 -10 8 3 18 6 20 6 2 0 4 5 4 10 0 16
-27 11 -34 -6z"/>
<path d="M905 1141 c-3 -5 -2 -12 3 -15 5 -3 9 1 9 9 0 17 -3 19 -12 6z"/>
<path d="M708 1142 c-10 -2 -18 -8 -18 -13 0 -13 27 -11 35 2 9 13 4 16 -17
11z"/>
<path d="M2527 1354 c-26 -53 -121 -196 -149 -222 l-25 -23 41 -45 c23 -25 71
-72 108 -105 l68 -60 32 37 c62 70 126 164 172 253 50 96 51 101 36 101 -6 0
-59 20 -117 45 -87 36 -109 42 -122 32 -12 -10 -14 -9 -8 6 13 33 -19 17 -36
-19z m91 -16 c-6 -18 -28 -21 -28 -4 0 9 7 16 16 16 9 0 14 -5 12 -12z m-48
-11 c0 -7 -6 -22 -14 -33 -22 -28 -41 -6 -20 24 17 24 34 29 34 9z m100 -20
c0 -14 -20 -37 -32 -37 -10 0 -11 34 -1 43 11 12 33 8 33 -6z m30 -2 c7 -9 8
-15 2 -15 -5 0 -12 7 -16 15 -3 8 -4 15 -2 15 2 0 9 -7 16 -15z m40 -15 c0 -5
-5 -10 -11 -10 -5 0 -7 5 -4 10 3 6 8 10 11 10 2 0 4 -4 4 -10z m-130 -19 c0
-12 -29 -41 -41 -41 -13 0 -11 24 3 38 14 14 38 16 38 3z m155 -11 c-3 -4 1
-10 7 -13 10 -3 10 -8 -1 -18 -8 -8 -11 -9 -7 -2 3 6 -1 16 -10 21 -9 5 -14
15 -10 21 4 6 12 9 17 5 5 -3 7 -9 4 -14z m-231 1 c-3 -4 -10 -6 -14 -6 -5 0
-16 -9 -24 -20 -17 -24 -32 -14 -18 12 6 11 21 19 36 19 14 0 23 -2 20 -5z
m186 1 c0 -5 -6 -16 -13 -27 -18 -24 -41 -11 -27 16 10 19 40 27 40 11z m-180
-46 c0 -22 -29 -41 -42 -28 -8 8 -8 15 2 27 16 19 40 20 40 1z m110 6 c0 -5
-6 -16 -13 -27 -18 -24 -41 -11 -27 16 10 19 40 27 40 11z m96 -27 c-7 -18
-26 -20 -26 -2 0 18 24 41 28 27 2 -6 1 -17 -2 -25z m-173 -47 c-21 -20 -23
-21 -29 -3 -9 22 24 51 40 35 7 -7 3 -17 -11 -32z m117 23 c0 -24 -26 -48 -32
-29 -5 14 12 48 24 48 5 0 8 -8 8 -19z m-210 -5 c0 -22 -29 -41 -42 -28 -8 8
-8 15 2 27 16 19 40 20 40 1z m-62 -50 c-1 -15 -7 -22 -15 -19 -15 6 -15 6 -7
27 9 24 24 19 22 -8z m97 -16 c-21 -23 -35 -26 -35 -6 0 23 31 49 43 37 7 -7
5 -17 -8 -31z m115 27 c0 -18 -36 -51 -44 -39 -6 10 21 52 35 52 5 0 9 -6 9
-13z m90 4 c0 -13 -26 -32 -33 -24 -8 7 11 33 24 33 5 0 9 -4 9 -9z m-260 -50
c0 -13 -29 -35 -37 -28 -7 8 15 37 28 37 5 0 9 -4 9 -9z m108 -7 c-4 -20 -34
-41 -44 -31 -8 8 24 47 38 47 5 0 8 -7 6 -16z m92 -19 c-7 -8 -16 -15 -21 -15
-13 0 -11 24 3 38 18 18 35 -3 18 -23z m-160 -14 c0 -17 -12 -41 -21 -41 -10
0 -12 33 -2 43 9 10 23 9 23 -2z m110 -36 c-6 -7 -19 -15 -30 -18 -14 -4 -17
-1 -13 12 12 32 25 42 39 30 10 -8 11 -15 4 -24z m-71 -26 c-7 -14 -14 -18
-21 -11 -13 13 -2 32 18 32 12 0 13 -4 3 -21z m31 -34 c-7 -9 -15 -13 -17 -11
-7 7 7 26 19 26 6 0 6 -6 -2 -15z"/>
<path d="M3293 1335 c0 -27 2 -38 4 -22 2 15 2 37 0 50 -2 12 -4 0 -4 -28z"/>
<path d="M43 1330 c0 -25 2 -35 4 -22 2 12 2 32 0 45 -2 12 -4 2 -4 -23z"/>
<path d="M3292 1230 c0 -14 2 -19 5 -12 2 6 2 18 0 25 -3 6 -5 1 -5 -13z"/>
<path d="M41 1194 c0 -11 3 -14 6 -6 3 7 2 16 -1 19 -3 4 -6 -2 -5 -13z"/>
<path d="M3292 1160 c0 -19 2 -27 5 -17 2 9 2 25 0 35 -3 9 -5 1 -5 -18z"/>
<path d="M41 1154 c0 -11 3 -14 6 -6 3 7 2 16 -1 19 -3 4 -6 -2 -5 -13z"/>
<path d="M570 1150 c6 -11 13 -20 16 -20 2 0 0 9 -6 20 -6 11 -13 20 -16 20
-2 0 0 -9 6 -20z"/>
<path d="M3292 1100 c0 -14 2 -19 5 -12 2 6 2 18 0 25 -3 6 -5 1 -5 -13z"/>
<path d="M911 997 l-104 -102 59 -53 c33 -30 91 -76 129 -102 69 -47 194 -114
200 -108 4 4 105 257 105 262 0 2 -33 23 -72 46 -40 24 -96 60 -125 81 -46 34
-53 37 -67 24 -10 -10 -17 -12 -21 -4 -4 5 1 16 10 23 14 10 15 14 3 24 -11 9
-34 -9 -117 -91z m91 18 c3 0 10 -4 15 -9 5 -5 3 -6 -4 -2 -7 4 -13 2 -13 -3
0 -13 -10 -14 -29 -2 -7 5 -10 14 -7 20 4 6 13 8 19 4 7 -4 15 -8 19 -8z m82
-14 c16 -17 16 -19 -1 -25 -16 -7 -43 16 -43 36 0 15 27 8 44 -11z m-138 -48
c-3 -3 -13 -3 -22 1 -13 5 -14 9 -3 22 11 14 13 14 22 -1 5 -9 6 -19 3 -22z
m229 2 c20 -15 20 -16 -4 -13 -13 2 -31 14 -40 27 -15 23 -15 24 4 13 11 -6
29 -18 40 -27z m-139 4 c3 -6 1 -16 -4 -21 -13 -13 -45 8 -36 23 7 12 31 11
40 -2z m93 -23 c9 -10 9 -16 1 -21 -16 -10 -40 2 -40 20 0 19 24 20 39 1z
m-221 -15 c3 -8 -1 -12 -9 -9 -7 2 -15 10 -17 17 -3 8 1 12 9 9 7 -2 15 -10
17 -17z m104 -25 c7 4 8 2 4 -4 -8 -13 -33 -6 -59 16 -13 12 -15 17 -5 24 8 5
20 -1 31 -17 10 -14 24 -22 29 -19z m237 7 c33 -19 43 -40 14 -28 -10 4 -27 8
-38 10 -11 1 -23 3 -27 4 -5 0 -8 8 -8 16 0 20 21 19 59 -2z m-371 -12 c3 -8
-1 -12 -9 -9 -7 2 -15 10 -17 17 -3 8 1 12 9 9 7 -2 15 -10 17 -17z m198 5
c16 -12 17 -17 6 -28 -11 -11 -16 -10 -28 6 -16 22 -18 36 -6 36 5 0 17 -6 28
-14z m-138 -18 c14 -14 16 -38 4 -38 -18 0 -45 28 -38 38 9 15 19 15 34 0z
m234 -5 c21 -18 23 -33 6 -33 -14 0 -48 30 -48 42 0 13 22 9 42 -9z m-192 -23
c6 -11 8 -20 6 -20 -3 0 -10 9 -16 20 -6 11 -8 20 -6 20 3 0 10 -9 16 -20z
m68 -18 c6 -20 -37 -13 -47 7 -6 10 -7 21 -4 25 8 8 45 -16 51 -32z m203 13
c-1 -15 -24 -12 -29 3 -3 9 2 13 12 10 10 -1 17 -7 17 -13z m-123 -17 c19 -19
14 -30 -10 -26 -13 2 -24 11 -26 21 -4 20 18 23 36 5z m-138 -23 c7 -8 16 -12
21 -9 5 3 6 -2 2 -11 -3 -9 -9 -12 -12 -7 -3 5 -15 11 -25 13 -23 5 -34 29
-13 29 8 0 20 -7 27 -15z m235 -6 c5 -6 5 -13 -1 -19 -11 -11 -54 14 -54 31 0
11 39 2 55 -12z m-141 -21 c5 -9 7 -20 3 -24 -8 -8 -47 24 -47 38 0 15 32 5
44 -14z m81 -18 c10 -11 16 -23 12 -26 -9 -9 -47 16 -47 31 0 21 14 19 35 -5z
m-125 -15 c14 -16 10 -18 -14 -9 -9 3 -16 10 -16 15 0 14 16 11 30 -6z m180
-5 c0 -5 -7 -10 -15 -10 -8 0 -15 5 -15 10 0 6 7 10 15 10 8 0 15 -4 15 -10z
m-57 -38 c15 -6 27 -16 27 -22 0 -16 -12 -12 -37 12 -13 12 -23 16 -23 10 0
-16 -12 -15 -36 3 -18 15 -18 15 11 12 17 -2 42 -9 58 -15z m42 0 c-3 -3 -11
0 -18 7 -9 10 -8 11 6 5 10 -3 15 -9 12 -12z"/>
<path d="M2285 1044 c-26 -23 -87 -66 -136 -95 -49 -29 -89 -56 -89 -61 0 -8
40 -108 88 -220 l21 -47 90 48 c96 51 207 130 255 180 l29 30 -106 103 -105
103 -47 -41z m59 -16 c-3 -4 3 -5 13 -1 10 3 15 3 11 -2 -4 -4 3 -16 15 -26
20 -18 20 -19 2 -12 -11 3 -26 11 -33 16 -9 7 -11 6 -7 -6 4 -8 1 -18 -6 -23
-8 -5 -10 -3 -4 7 4 8 -3 3 -17 -11 -13 -14 -23 -28 -21 -32 2 -4 -2 -10 -9
-14 -7 -4 -10 -4 -6 1 4 4 2 15 -5 23 -10 13 -9 14 3 7 8 -4 5 2 -7 14 -13 12
-23 25 -23 28 0 4 3 3 7 0 3 -4 12 2 20 13 8 11 20 20 27 20 8 0 17 8 20 17 6
15 9 15 16 3 5 -8 6 -18 4 -22z m56 -68 c0 -5 -10 -15 -22 -21 -13 -6 -35 -23
-51 -37 l-27 -26 11 32 c6 18 21 39 32 47 24 17 57 20 57 5z m-140 -15 c7 -8
10 -26 7 -41 -3 -18 -1 -24 8 -20 20 7 28 -25 11 -43 -14 -13 -15 -12 -11 8 2
13 2 21 -2 17 -3 -3 -21 11 -39 31 -25 28 -30 40 -22 50 14 17 33 16 48 -2z
m-86 -32 c-10 -18 -11 -22 -2 -11 11 13 17 15 26 6 7 -7 12 -17 12 -22 0 -6
-4 -5 -9 3 -7 11 -13 10 -33 -3 -14 -9 -28 -13 -33 -9 -4 5 -5 2 -1 -4 4 -7 2
-13 -3 -13 -6 0 -11 -9 -11 -20 0 -11 -4 -20 -10 -20 -5 0 -6 7 -3 17 4 9 2
14 -3 10 -6 -3 -10 4 -9 17 0 25 29 59 40 48 3 -4 11 1 16 11 6 9 17 17 25 17
12 0 12 -4 -2 -27z m246 8 c0 -27 -47 -61 -84 -60 -28 0 -29 1 -12 12 11 7 33
24 50 39 37 33 46 34 46 9z m67 -17 c3 -7 9 -12 13 -9 14 9 5 -21 -13 -46 -10
-13 -15 -17 -10 -9 4 8 -15 -3 -42 -26 -71 -58 -70 -58 -72 -6 -1 34 1 41 7
27 8 -18 9 -18 9 5 1 17 4 21 9 12 6 -9 15 -5 33 15 l24 28 -25 -20 c-22 -17
-21 -16 4 12 16 18 25 36 21 43 -6 9 -2 9 14 0 12 -6 25 -18 28 -26z m-246
-44 c18 -10 18 -12 3 -43 -32 -61 -81 -76 -104 -31 -16 30 -7 52 31 71 30 16
45 16 70 3z m91 -47 c22 -20 23 -36 3 -53 -21 -18 -45 4 -45 41 0 33 15 37 42
12z m-62 -28 c7 -9 8 -15 2 -15 -5 0 -12 7 -16 15 -3 8 -4 15 -2 15 2 0 9 -7
16 -15z m9 -42 c-7 -8 -3 -11 15 -9 35 4 23 -15 -25 -41 -45 -25 -78 -22 -57
5 7 9 -1 6 -19 -7 -27 -18 -32 -19 -26 -5 4 12 3 15 -5 10 -8 -5 -12 1 -12 18
0 13 -6 27 -12 30 -7 4 -2 4 11 2 13 -3 34 -1 47 4 15 6 26 5 30 -2 5 -7 3 -8
-6 -3 -9 5 -11 4 -6 -4 6 -8 12 -9 20 -2 7 6 17 7 21 3 5 -4 5 -1 1 6 -4 7
-12 10 -17 7 -5 -3 -6 0 -3 8 4 12 10 12 29 3 16 -7 21 -14 14 -23z m-79 -73
c0 -5 -4 -10 -10 -10 -5 0 -10 5 -10 10 0 6 5 10 10 10 6 0 10 -4 10 -10z"/>
<path d="M2236 915 c19 -29 29 -27 19 4 -3 12 -13 21 -21 21 -12 0 -12 -4 2
-25z"/>
<path d="M2204 839 c-33 -9 -61 -35 -51 -45 6 -6 97 42 97 51 0 6 -8 5 -46 -6z"/>
<path d="M2307 791 c3 -12 10 -21 15 -21 13 0 6 32 -9 37 -7 3 -9 -3 -6 -16z"/>
<path d="M2235 710 c-3 -5 -3 -10 2 -10 4 0 1 -5 -7 -11 -12 -8 -12 -10 -1 -7
8 2 15 12 17 21 3 19 -2 22 -11 7z"/>
<path d="M2265 710 c-3 -6 1 -7 9 -4 18 7 21 14 7 14 -6 0 -13 -4 -16 -10z"/>
<path d="M41 994 c0 -11 3 -14 6 -6 3 7 2 16 -1 19 -3 4 -6 -2 -5 -13z"/>
<path d="M250 920 c0 -5 5 -10 11 -10 5 0 7 5 4 10 -3 6 -8 10 -11 10 -2 0 -4
-4 -4 -10z"/>
<path d="M3291 904 c0 -11 3 -14 6 -6 3 7 2 16 -1 19 -3 4 -6 -2 -5 -13z"/>
<path d="M1290 808 c-67 -173 -71 -187 -52 -197 62 -32 225 -70 372 -86 l55
-6 -2 148 -1 148 -85 11 c-71 9 -180 37 -241 60 -10 4 -23 -17 -46 -78z m100
36 c19 -4 39 -7 43 -6 13 4 20 -28 8 -42 -6 -7 -7 -16 -3 -21 4 -4 -3 -2 -15
4 -25 13 -31 26 -8 18 8 -4 17 -2 20 3 3 5 -10 7 -29 4 -20 -2 -38 1 -42 8 -4
6 -3 8 3 5 5 -3 10 1 10 10 0 12 -5 11 -19 -7 -11 -13 -18 -17 -18 -9 0 11 -2
11 -10 -1 -17 -28 -21 -3 -3 28 10 17 20 27 23 23 3 -5 21 -12 40 -17z m118
-46 c8 -8 6 -18 -9 -40 -25 -34 -39 -36 -39 -4 0 51 21 71 48 44z m109 3 c24
-1 33 -25 21 -58 -4 -13 -4 -23 1 -23 9 0 8 -31 -3 -48 -5 -9 -14 -9 -36 3
-16 8 -46 15 -67 14 l-38 -1 30 -13 c17 -8 43 -14 58 -15 41 0 29 -24 -14 -28
-27 -2 -40 3 -59 23 -32 34 -18 59 36 63 32 3 42 -1 60 -23 12 -15 24 -23 28
-17 10 16 -32 60 -65 67 -24 5 -39 1 -69 -20 -23 -16 -37 -32 -33 -39 4 -6 -1
-5 -10 3 -17 13 -14 36 3 26 14 -9 71 47 73 71 1 18 7 21 32 19 16 -2 40 -3
52 -4z m-307 -31 c-6 -11 -16 -20 -22 -20 -6 0 -3 9 7 20 10 11 20 20 22 20 2
0 -1 -9 -7 -20z m90 -2 c41 -28 46 -41 25 -62 -32 -32 -115 -10 -115 30 0 10
7 10 35 -2 19 -7 47 -14 62 -14 l28 1 -35 19 c-19 11 -46 19 -59 20 -20 0 -21
2 -11 15 17 20 31 19 70 -7z m-115 -71 c-17 -25 -19 -37 -5 -37 6 0 9 3 9 8
-5 28 3 30 43 12 31 -14 46 -16 55 -8 8 6 16 8 20 5 3 -4 13 -1 21 6 10 7 13
8 9 1 -4 -7 2 -14 13 -17 13 -3 20 -14 20 -30 0 -30 -21 -50 -44 -41 -18 7
-22 39 -6 49 23 14 8 23 -17 10 -26 -14 -42 -47 -20 -42 6 1 13 -6 15 -16 3
-16 1 -17 -16 -8 -11 6 -22 7 -26 4 -3 -3 -6 -1 -6 6 0 7 -10 10 -25 7 -23 -4
-30 3 -26 27 1 5 -3 6 -9 2 -6 -3 -7 -12 -3 -18 4 -7 -1 -5 -11 3 -14 11 -17
23 -12 54 8 46 14 58 27 51 5 -4 3 -15 -6 -28z m355 -82 c-4 -19 -5 -35 -1
-35 12 0 9 -29 -3 -33 -6 -3 -34 -1 -61 3 -28 4 -53 6 -57 3 -8 -4 -12 12 -9
30 1 5 -3 6 -9 2 -6 -3 -8 -11 -5 -16 4 -5 -3 -9 -14 -9 -28 0 -26 10 6 37 14
13 20 23 13 23 -7 0 -11 3 -8 6 4 3 17 -1 30 -10 25 -16 66 -18 86 -3 6 5 12
6 13 1 0 -5 4 1 9 14 14 33 19 27 10 -13z"/>
<path d="M1477 778 c-8 -30 -1 -35 12 -9 6 11 7 22 2 25 -5 3 -11 -4 -14 -16z"/>
<path d="M1438 635 c-3 -14 -1 -25 3 -25 5 0 9 11 9 25 0 14 -2 25 -4 25 -2 0
-6 -11 -8 -25z"/>
<path d="M1955 863 c-38 -13 -114 -29 -167 -36 l-98 -11 0 -149 0 -149 83 7
c101 8 233 36 310 65 31 12 57 23 57 24 0 6 -98 244 -106 258 -8 13 -18 12
-79 -9z m45 -24 c-28 -21 -59 -33 -67 -26 -10 10 8 27 28 27 11 0 27 7 36 15
8 9 18 13 22 10 3 -4 -5 -15 -19 -26z m-123 -26 c-9 -9 -19 -14 -23 -11 -10
10 6 28 24 28 15 0 15 -1 -1 -17z m163 -3 c0 -12 -28 -25 -36 -17 -9 9 6 27
22 27 8 0 14 -5 14 -10z m-290 -10 c0 -13 -28 -25 -38 -16 -3 4 0 11 8 16 20
13 30 12 30 0z m85 1 c3 -5 2 -12 -3 -15 -5 -3 -9 1 -9 9 0 17 3 19 12 6z m80
-1 c3 -5 1 -10 -4 -10 -6 0 -11 5 -11 10 0 6 2 10 4 10 3 0 8 -4 11 -10z
m-105 -9 c0 -11 -19 -26 -43 -34 -18 -7 -17 2 6 31 11 14 37 16 37 3z m80 -10
c0 -15 -28 -33 -40 -26 -8 5 -8 11 1 21 13 15 39 19 39 5z m80 -11 c0 -11 -40
-34 -47 -26 -3 3 -3 12 0 21 7 16 47 21 47 5z m70 -32 c-24 -19 -41 -20 -42
-3 -1 13 43 35 56 28 5 -3 -1 -15 -14 -25z m-136 6 c3 -8 2 -12 -4 -9 -6 3
-10 10 -10 16 0 14 7 11 14 -7z m-159 -3 c3 -6 -3 -15 -14 -21 -24 -12 -42 7
-20 21 18 11 26 11 34 0z m95 -12 c0 -6 -4 -7 -10 -4 -5 3 -10 11 -10 16 0 6
5 7 10 4 6 -3 10 -11 10 -16z m-32 -11 c-5 -15 -48 -24 -48 -10 0 14 12 22 33
22 10 0 17 -5 15 -12z m81 -14 c-6 -8 -20 -14 -31 -14 -10 0 -16 -4 -13 -10 3
-5 0 -7 -8 -4 -8 3 -21 -6 -31 -20 -18 -28 -46 -35 -46 -12 0 8 12 18 28 24
15 5 39 21 55 35 29 28 69 28 46 1z m186 16 c8 -13 -35 -60 -57 -60 -30 0 -20
19 19 35 30 13 35 18 23 25 -9 6 -10 10 -3 10 6 0 14 -4 18 -10z m-102 -7 c11
-10 -13 -33 -34 -33 -24 0 -25 16 -1 29 20 12 27 13 35 4z m-213 -27 c0 -8
-31 -36 -41 -36 -19 0 -8 29 14 33 12 2 23 5 25 6 1 0 2 -1 2 -3z m140 -36 c0
-13 -38 -32 -51 -25 -14 10 9 35 32 35 11 0 19 -4 19 -10z m190 2 c0 -13 -12
-22 -22 -16 -10 6 -1 24 13 24 5 0 9 -4 9 -8z m-110 -10 c0 -11 -51 -35 -58
-28 -3 3 1 12 8 21 13 16 50 21 50 7z m-150 -23 c0 -11 -4 -18 -10 -14 -5 3
-7 12 -3 20 7 21 13 19 13 -6z m-85 1 c3 -6 -1 -13 -10 -16 -19 -8 -30 0 -20
15 8 14 22 14 30 1z m310 1 c7 -12 -31 -25 -46 -15 -8 4 -7 9 2 15 18 11 36
11 44 0z m-245 -31 c0 -15 -38 -32 -45 -20 -3 5 -3 15 0 20 8 13 45 13 45 0z
m78 -2 c-6 -17 -36 -34 -45 -24 -4 4 1 14 11 22 24 17 39 18 34 2z m68 -3
c-22 -17 -36 -19 -36 -7 0 14 12 22 34 22 21 -1 21 -1 2 -15z m-209 -24 c11
-17 10 -18 -13 -7 -26 12 -32 26 -11 26 7 0 17 -8 24 -19z"/>
<path d="M3292 770 c0 -19 2 -27 5 -17 2 9 2 25 0 35 -3 9 -5 1 -5 -18z"/>
<path d="M321 739 c-13 -11 -31 -23 -39 -28 -17 -9 -12 -19 32 -74 24 -30 34
-35 54 -30 22 5 23 4 13 -16 -12 -22 -7 -41 10 -41 5 0 9 13 9 30 0 25 4 30
35 36 41 7 47 24 9 24 -19 0 -24 5 -22 18 4 28 -16 27 -22 0 -4 -17 -14 -24
-35 -26 -25 -2 -33 3 -48 29 -23 42 -7 63 22 28 10 -13 23 -21 27 -17 4 5 -1
17 -11 28 -12 14 -15 24 -9 30 7 7 15 2 24 -15 14 -27 30 -33 30 -12 -1 15
-35 57 -47 57 -4 -1 -19 -10 -32 -21z"/>
<path d="M2976 711 c-14 -15 -15 -24 -6 -40 13 -25 13 -25 51 -5 17 8 33 13
36 10 9 -8 -17 -36 -33 -36 -8 0 -14 -4 -14 -10 0 -17 36 -11 54 9 10 11 16
28 14 38 -4 24 -45 29 -67 9 -19 -18 -33 -12 -24 10 3 8 14 14 24 14 10 0 19
5 19 10 0 17 -36 11 -54 -9z"/>
<path d="M2930 654 c0 -3 14 -19 30 -34 33 -31 38 -48 14 -57 -9 -3 -26 5 -43
21 -26 25 -52 34 -50 19 0 -5 16 -21 35 -37 30 -25 40 -28 62 -20 41 14 41 54
2 88 -30 25 -50 33 -50 20z"/>
<path d="M44 550 c0 -58 1 -81 3 -52 2 28 2 76 0 105 -2 28 -3 5 -3 -53z"/>
<path d="M496 642 c-3 -5 1 -9 9 -9 8 0 12 4 9 9 -3 4 -7 8 -9 8 -2 0 -6 -4
-9 -8z"/>
<path d="M446 579 c-14 -11 -26 -31 -26 -43 0 -26 29 -56 53 -56 26 0 20 17
-8 24 -28 7 -34 36 -10 56 19 16 50 9 50 -13 0 -21 19 -24 23 -3 3 15 -31 56
-47 56 -4 0 -20 -9 -35 -21z"/>
<path d="M2837 557 l-28 -22 41 -44 c41 -42 66 -49 42 -10 -10 16 -9 24 3 43
14 22 14 25 0 40 -21 21 -25 20 -58 -7z m43 -11 c0 -2 -3 -12 -6 -20 -5 -13
-9 -14 -20 -5 -16 13 -9 29 12 29 8 0 14 -2 14 -4z"/>
<path d="M516 491 l-39 -40 29 -25 c38 -33 66 -35 36 -3 -36 38 -27 64 10 30
10 -9 21 -13 25 -9 4 4 -3 15 -16 25 -14 11 -21 23 -16 30 5 9 13 7 30 -9 13
-12 28 -19 34 -15 7 4 0 16 -18 31 -16 13 -31 24 -33 24 -2 0 -21 -18 -42 -39z"/>
<path d="M3000 520 c-11 -7 -11 -10 -2 -10 8 0 10 -5 6 -12 -5 -9 -3 -9 9 1 9
7 14 17 11 22 -6 11 -6 11 -24 -1z"/>
<path d="M2756 484 c-20 -19 -20 -43 -1 -71 21 -30 51 -34 80 -11 31 24 32 48
2 76 -27 26 -59 28 -81 6z m62 -16 c17 -17 15 -48 -5 -55 -20 -8 -55 31 -46
52 6 18 35 19 51 3z"/>
<path d="M593 425 l-31 -43 22 -21 c31 -29 58 -28 29 1 l-22 21 29 37 c26 33
30 51 11 49 -3 0 -20 -20 -38 -44z"/>
<path d="M2938 447 c-15 -12 -15 -14 5 -27 19 -12 20 -11 10 2 -10 11 -10 17
-1 26 16 16 7 15 -14 -1z"/>
<path d="M2690 446 c0 -2 7 -7 16 -10 8 -3 12 -2 9 4 -6 10 -25 14 -25 6z"/>
<path d="M2643 399 c-21 -13 -30 -25 -25 -32 4 -7 18 -29 31 -49 l23 -38 29
20 c15 12 31 25 34 30 10 16 -22 11 -35 -5 -10 -12 -16 -13 -27 -3 -12 9 -10
15 14 34 20 17 24 23 12 24 -9 0 -22 -7 -29 -15 -9 -10 -17 -12 -23 -6 -6 6 0
19 19 35 35 31 21 34 -23 5z"/>
<path d="M664 366 l-32 -44 29 -21 c15 -11 33 -21 39 -21 19 0 10 17 -16 29
l-25 11 30 39 c27 33 31 52 12 50 -3 0 -20 -20 -37 -43z"/>
<path d="M3293 370 c0 -25 2 -35 4 -22 2 12 2 32 0 45 -2 12 -4 2 -4 -23z"/>
<path d="M540 356 c0 -3 9 -10 20 -16 11 -6 20 -8 20 -6 0 3 -9 10 -20 16 -11
6 -20 8 -20 6z"/>
<path d="M760 351 c0 -4 -11 -25 -25 -46 -15 -20 -25 -38 -23 -39 2 -2 20 -13
41 -25 41 -25 52 -13 12 13 -15 10 -22 22 -18 31 5 14 8 14 30 0 33 -22 44 -9
13 15 -28 21 -19 41 10 22 22 -14 40 -16 40 -4 0 8 -57 42 -71 42 -5 0 -9 -4
-9 -9z"/>
<path d="M3311 344 c0 -11 3 -14 6 -6 3 7 2 16 -1 19 -3 4 -6 -2 -5 -13z"/>
<path d="M2555 340 c-4 -6 -3 -35 0 -65 4 -30 5 -55 1 -55 -3 0 -15 19 -27 43
-26 51 -25 50 -38 43 -7 -5 22 -74 45 -104 6 -9 52 31 48 41 -7 19 35 41 51
27 7 -6 16 -7 19 -2 4 7 -75 82 -88 82 -3 0 -8 -5 -11 -10z m39 -51 c-10 -16
-24 -9 -24 12 0 18 2 19 15 9 8 -7 12 -16 9 -21z"/>
<path d="M828 260 c-15 -27 -23 -52 -18 -55 5 -3 17 9 27 27 l18 33 5 -44 c3
-25 10 -46 15 -48 6 -1 19 18 30 44 11 26 22 51 23 55 2 4 -1 8 -6 8 -5 0 -16
-14 -23 -32 l-13 -32 -8 30 c-4 16 -5 37 -2 47 12 37 -22 15 -48 -33z"/>
<path d="M2344 274 c-18 -14 -18 -15 4 -4 12 6 22 13 22 15 0 8 -5 6 -26 -11z"/>
<path d="M2413 268 c-28 -14 -28 -17 -1 -73 25 -51 43 -60 33 -15 -8 34 7 40
36 14 10 -9 23 -13 29 -9 8 5 4 13 -12 24 -14 9 -23 26 -23 41 0 29 -26 36
-62 18z m47 -22 c0 -14 -29 -31 -38 -22 -2 3 -2 12 1 21 8 19 37 20 37 1z"/>
<path d="M2695 271 c-3 -5 -2 -12 3 -15 5 -3 9 1 9 9 0 17 -3 19 -12 6z"/>
<path d="M2786 267 c3 -10 9 -15 12 -12 3 3 0 11 -7 18 -10 9 -11 8 -5 -6z"/>
<path d="M940 251 c0 -5 6 -11 13 -14 9 -3 8 -13 -5 -41 -20 -42 -22 -56 -8
-56 6 0 17 18 26 41 11 26 21 38 30 35 7 -3 16 -1 19 5 4 5 -9 16 -29 24 -41
18 -46 18 -46 6z"/>
<path d="M1066 242 c-3 -5 1 -9 9 -9 8 0 12 4 9 9 -3 4 -7 8 -9 8 -2 0 -6 -4
-9 -8z"/>
<path d="M2323 228 c-28 -14 -30 -32 -3 -23 11 3 20 2 20 -3 0 -5 7 -26 15
-46 21 -51 38 -36 19 17 -10 27 -11 43 -4 45 5 2 10 8 10 13 0 12 -29 10 -57
-3z"/>
<path d="M1023 203 c-3 -10 -12 -33 -19 -52 -8 -18 -14 -35 -14 -36 0 -9 54
-15 62 -7 14 14 45 3 51 -19 3 -10 10 -19 16 -19 8 0 9 18 5 58 -8 70 -19 84
-40 54 -55 -79 -79 -86 -49 -15 8 19 15 39 15 44 0 16 -20 9 -27 -8z m80 -57
c-3 -16 -10 -23 -19 -19 -13 5 -12 8 2 24 22 24 22 24 17 -5z"/>
<path d="M2251 196 c-7 -9 -11 -36 -8 -73 2 -43 5 -52 11 -36 9 26 45 41 56
24 3 -7 14 -9 23 -6 14 6 14 8 -1 23 -9 10 -29 32 -43 50 -22 29 -27 31 -38
18z m32 -40 c6 -15 -1 -26 -15 -26 -4 0 -8 9 -8 20 0 23 15 27 23 6z"/>
<path d="M2160 171 c-27 -8 -27 -13 -9 -83 5 -21 15 -38 20 -38 7 0 9 10 5 24
-4 18 -1 25 14 29 25 6 36 35 23 55 -12 20 -21 22 -53 13z m35 -32 c0 -7 -8
-15 -17 -17 -18 -3 -25 18 -11 32 10 10 28 1 28 -15z"/>
<path d="M1195 108 c-18 -63 -18 -58 0 -58 9 0 15 9 15 21 0 15 5 20 23 17 18
-2 21 -8 19 -30 -6 -48 16 -30 27 22 14 63 14 70 1 70 -5 0 -10 -8 -10 -18 0
-25 -7 -31 -31 -25 -16 4 -19 11 -15 29 12 48 -14 23 -29 -28z"/>
<path d="M1615 139 c-4 -6 -5 -12 -2 -15 2 -3 7 2 10 11 7 17 1 20 -8 4z"/>
<path d="M2033 137 c-44 -10 -58 -27 -24 -27 13 0 21 -11 27 -41 5 -22 14 -39
19 -37 10 3 10 13 1 61 -4 20 -2 27 9 27 8 0 15 7 15 15 0 8 -1 14 -2 14 -2
-1 -22 -6 -45 -12z"/>
<path d="M896 123 c-6 -14 -5 -15 5 -6 7 7 10 15 7 18 -3 3 -9 -2 -12 -12z"/>
<path d="M1306 103 c-10 -63 -7 -73 21 -84 21 -8 30 -6 44 8 20 20 30 85 14
93 -5 3 -11 -11 -13 -30 -4 -42 -18 -61 -39 -53 -11 4 -13 14 -8 42 4 20 7 40
8 45 1 5 -3 10 -9 13 -6 2 -14 -12 -18 -34z"/>
<path d="M1940 121 c-37 -6 -37 -7 -25 -86 5 -29 7 -30 45 -27 22 2 40 9 40
14 0 6 -12 8 -29 5 -20 -4 -31 -2 -34 7 -7 19 1 26 30 26 13 0 23 5 23 11 0 7
-11 9 -30 6 -22 -5 -30 -3 -30 8 0 9 10 15 25 15 16 0 25 6 25 15 0 8 -1 14
-2 14 -2 -1 -19 -4 -38 -8z"/>
<path d="M1413 68 c-10 -56 -8 -72 8 -63 5 4 9 23 10 43 l1 37 10 -42 c9 -42
24 -56 33 -30 19 53 26 69 30 65 3 -2 0 -19 -5 -38 -5 -19 -7 -36 -4 -39 9 -9
24 23 24 52 0 16 4 36 10 46 8 15 6 17 -14 14 -16 -3 -29 -17 -38 -41 l-15
-37 -7 43 c-11 59 -32 54 -43 -10z"/>
<path d="M1552 53 c-22 -52 -21 -63 3 -43 12 10 21 10 42 1 14 -6 27 -10 29
-8 2 2 -2 23 -9 48 -18 61 -39 61 -65 2z m48 -15 c0 -5 -7 -8 -15 -8 -17 0
-18 2 -9 25 5 13 8 14 15 3 5 -7 9 -16 9 -20z"/>
<path d="M1650 50 c0 -27 5 -50 10 -50 6 0 10 15 10 33 l0 32 21 -32 c31 -49
49 -43 49 17 0 58 -17 68 -22 13 l-3 -38 -20 38 c-27 53 -45 48 -45 -13z"/>
<path d="M1781 78 c-13 -37 -22 -78 -16 -78 3 0 14 6 25 12 16 10 24 10 41 0
12 -7 22 -12 24 -10 2 2 -6 25 -17 51 -22 51 -44 60 -57 25z m39 -40 c0 -5 -7
-8 -15 -8 -17 0 -18 2 -9 25 5 13 8 14 15 3 5 -7 9 -16 9 -20z"/>
</g>
</svg>
